<mxfile host="app.diagrams.net" modified="2020-06-22T18:06:13.130Z" agent="5.0 (Macintosh; Intel Mac OS X 10_15_1) AppleWebKit/537.36 (KHTML, like Gecko) Chrome/83.0.4103.106 Safari/537.36" etag="xeJ91dBF48F3rql0iBYo" version="13.3.0" type="github" pages="13">
  <diagram id="Xs8MQ4heo64HYCRX1-q9" name="03 - hooks">
    <mxGraphModel dx="613" dy="302" grid="1" gridSize="10" guides="1" tooltips="1" connect="1" arrows="1" fold="1" page="1" pageScale="1" pageWidth="1920" pageHeight="1200" math="0" shadow="0">
      <root>
        <mxCell id="Fw1j4GzZVZ9YjB_BGAy8-0" />
        <mxCell id="Fw1j4GzZVZ9YjB_BGAy8-1" parent="Fw1j4GzZVZ9YjB_BGAy8-0" />
        <mxCell id="Fw1j4GzZVZ9YjB_BGAy8-2" value="The Hooks System" style="rounded=0;whiteSpace=wrap;html=1;align=center;fontStyle=1;fillColor=#dae8fc;strokeColor=#6c8ebf;shadow=1;fontSize=27;" vertex="1" parent="Fw1j4GzZVZ9YjB_BGAy8-1">
          <mxGeometry x="580" y="230" width="350" height="90" as="geometry" />
        </mxCell>
      </root>
    </mxGraphModel>
  </diagram>
  <diagram id="J0nNf1khwY0OVpfFuq0t" name="04 - step">
    <mxGraphModel dx="556" dy="274" grid="1" gridSize="10" guides="1" tooltips="1" connect="1" arrows="1" fold="1" page="1" pageScale="1" pageWidth="1920" pageHeight="1200" math="0" shadow="0">
      <root>
        <mxCell id="P6k9zwYlAgLLiM9GauDp-0" />
        <mxCell id="P6k9zwYlAgLLiM9GauDp-1" parent="P6k9zwYlAgLLiM9GauDp-0" />
        <mxCell id="Kb2-o1CX_GIhlwRT4rHR-0" value="Much Easier" style="rounded=0;whiteSpace=wrap;html=1;shadow=1;fontSize=24;fillColor=#d5e8d4;strokeColor=#82b366;fontStyle=1" vertex="1" parent="P6k9zwYlAgLLiM9GauDp-1">
          <mxGeometry x="480" y="380" width="100" height="80" as="geometry" />
        </mxCell>
        <mxCell id="Kb2-o1CX_GIhlwRT4rHR-1" style="edgeStyle=orthogonalEdgeStyle;rounded=0;orthogonalLoop=1;jettySize=auto;html=1;exitX=1;exitY=0.5;exitDx=0;exitDy=0;fontSize=24;" edge="1" parent="P6k9zwYlAgLLiM9GauDp-1">
          <mxGeometry relative="1" as="geometry">
            <mxPoint x="610" y="420" as="targetPoint" />
            <mxPoint x="580" y="420" as="sourcePoint" />
          </mxGeometry>
        </mxCell>
        <mxCell id="Kb2-o1CX_GIhlwRT4rHR-2" style="edgeStyle=orthogonalEdgeStyle;rounded=0;orthogonalLoop=1;jettySize=auto;html=1;exitX=1;exitY=0.5;exitDx=0;exitDy=0;fontSize=17;" edge="1" parent="P6k9zwYlAgLLiM9GauDp-1" source="Kb2-o1CX_GIhlwRT4rHR-3" target="Kb2-o1CX_GIhlwRT4rHR-4">
          <mxGeometry relative="1" as="geometry" />
        </mxCell>
        <mxCell id="Kb2-o1CX_GIhlwRT4rHR-3" value="Learn Class Components" style="rounded=0;whiteSpace=wrap;html=1;shadow=1;fontSize=17;fillColor=#f5f5f5;strokeColor=#666666;fontColor=#333333;" vertex="1" parent="P6k9zwYlAgLLiM9GauDp-1">
          <mxGeometry x="610" y="390" width="120" height="60" as="geometry" />
        </mxCell>
        <mxCell id="Kb2-o1CX_GIhlwRT4rHR-4" value="Learn Hooks" style="rounded=0;whiteSpace=wrap;html=1;shadow=1;fontSize=17;fillColor=#fff2cc;strokeColor=#d6b656;" vertex="1" parent="P6k9zwYlAgLLiM9GauDp-1">
          <mxGeometry x="760" y="390" width="120" height="60" as="geometry" />
        </mxCell>
        <mxCell id="Kb2-o1CX_GIhlwRT4rHR-5" style="edgeStyle=orthogonalEdgeStyle;rounded=0;orthogonalLoop=1;jettySize=auto;html=1;exitX=1;exitY=0.5;exitDx=0;exitDy=0;fontSize=17;" edge="1" parent="P6k9zwYlAgLLiM9GauDp-1" target="Kb2-o1CX_GIhlwRT4rHR-6">
          <mxGeometry relative="1" as="geometry">
            <mxPoint x="880.0000000000002" y="420" as="sourcePoint" />
          </mxGeometry>
        </mxCell>
        <mxCell id="Kb2-o1CX_GIhlwRT4rHR-6" value="Learn Redux" style="rounded=0;whiteSpace=wrap;html=1;shadow=1;fontSize=17;" vertex="1" parent="P6k9zwYlAgLLiM9GauDp-1">
          <mxGeometry x="910" y="390" width="120" height="60" as="geometry" />
        </mxCell>
        <mxCell id="Kb2-o1CX_GIhlwRT4rHR-7" value="" style="endArrow=none;html=1;fontSize=27;strokeWidth=4;" edge="1" parent="P6k9zwYlAgLLiM9GauDp-1">
          <mxGeometry width="50" height="50" relative="1" as="geometry">
            <mxPoint x="620" y="380" as="sourcePoint" />
            <mxPoint x="720" y="460" as="targetPoint" />
          </mxGeometry>
        </mxCell>
      </root>
    </mxGraphModel>
  </diagram>
  <diagram id="_iHnUMCZ_KwNqD0kkY2M" name="06 - primitive">
    <mxGraphModel dx="668" dy="328" grid="1" gridSize="10" guides="1" tooltips="1" connect="1" arrows="1" fold="1" page="1" pageScale="1" pageWidth="1920" pageHeight="1200" math="0" shadow="0">
      <root>
        <mxCell id="tXBYTmBANUSyTLj4P4F8-0" />
        <mxCell id="tXBYTmBANUSyTLj4P4F8-1" parent="tXBYTmBANUSyTLj4P4F8-0" />
        <mxCell id="tXBYTmBANUSyTLj4P4F8-2" value="" style="rounded=0;whiteSpace=wrap;html=1;shadow=1;fontSize=17;align=center;fillColor=#dae8fc;strokeColor=#6c8ebf;" vertex="1" parent="tXBYTmBANUSyTLj4P4F8-1">
          <mxGeometry x="565" y="570" width="430" height="290" as="geometry" />
        </mxCell>
        <mxCell id="tXBYTmBANUSyTLj4P4F8-3" value="useState" style="rounded=0;whiteSpace=wrap;html=1;shadow=1;fontSize=17;align=center;" vertex="1" parent="tXBYTmBANUSyTLj4P4F8-1">
          <mxGeometry x="580" y="580" width="120" height="60" as="geometry" />
        </mxCell>
        <mxCell id="tXBYTmBANUSyTLj4P4F8-4" value="useEffect" style="rounded=0;whiteSpace=wrap;html=1;shadow=1;fontSize=17;align=center;" vertex="1" parent="tXBYTmBANUSyTLj4P4F8-1">
          <mxGeometry x="720" y="580" width="120" height="60" as="geometry" />
        </mxCell>
        <mxCell id="tXBYTmBANUSyTLj4P4F8-5" value="useContext" style="rounded=0;whiteSpace=wrap;html=1;shadow=1;fontSize=17;align=center;" vertex="1" parent="tXBYTmBANUSyTLj4P4F8-1">
          <mxGeometry x="860" y="580" width="120" height="60" as="geometry" />
        </mxCell>
        <mxCell id="tXBYTmBANUSyTLj4P4F8-6" value="useReducer" style="rounded=0;whiteSpace=wrap;html=1;shadow=1;fontSize=17;align=center;" vertex="1" parent="tXBYTmBANUSyTLj4P4F8-1">
          <mxGeometry x="580" y="650" width="120" height="60" as="geometry" />
        </mxCell>
        <mxCell id="tXBYTmBANUSyTLj4P4F8-7" value="useCallback" style="rounded=0;whiteSpace=wrap;html=1;shadow=1;fontSize=17;align=center;" vertex="1" parent="tXBYTmBANUSyTLj4P4F8-1">
          <mxGeometry x="720" y="650" width="120" height="60" as="geometry" />
        </mxCell>
        <mxCell id="tXBYTmBANUSyTLj4P4F8-8" value="useMemo" style="rounded=0;whiteSpace=wrap;html=1;shadow=1;fontSize=17;align=center;" vertex="1" parent="tXBYTmBANUSyTLj4P4F8-1">
          <mxGeometry x="860" y="650" width="120" height="60" as="geometry" />
        </mxCell>
        <mxCell id="tXBYTmBANUSyTLj4P4F8-9" value="useRef" style="rounded=0;whiteSpace=wrap;html=1;shadow=1;fontSize=17;align=center;" vertex="1" parent="tXBYTmBANUSyTLj4P4F8-1">
          <mxGeometry x="580" y="720" width="120" height="60" as="geometry" />
        </mxCell>
        <mxCell id="tXBYTmBANUSyTLj4P4F8-10" value="useImperative Handle" style="rounded=0;whiteSpace=wrap;html=1;shadow=1;fontSize=17;align=center;" vertex="1" parent="tXBYTmBANUSyTLj4P4F8-1">
          <mxGeometry x="720" y="720" width="120" height="60" as="geometry" />
        </mxCell>
        <mxCell id="tXBYTmBANUSyTLj4P4F8-11" value="useLayout Effect" style="rounded=0;whiteSpace=wrap;html=1;shadow=1;fontSize=17;align=center;" vertex="1" parent="tXBYTmBANUSyTLj4P4F8-1">
          <mxGeometry x="860" y="720" width="120" height="60" as="geometry" />
        </mxCell>
        <mxCell id="tXBYTmBANUSyTLj4P4F8-12" value="useDebug Value" style="rounded=0;whiteSpace=wrap;html=1;shadow=1;fontSize=17;align=center;" vertex="1" parent="tXBYTmBANUSyTLj4P4F8-1">
          <mxGeometry x="580" y="790" width="120" height="60" as="geometry" />
        </mxCell>
        <mxCell id="tXBYTmBANUSyTLj4P4F8-13" value="&lt;b style=&quot;font-size: 23px;&quot;&gt;Primitive Hooks&lt;/b&gt;" style="text;html=1;strokeColor=none;fillColor=none;align=center;verticalAlign=middle;whiteSpace=wrap;rounded=0;shadow=1;fontSize=23;" vertex="1" parent="tXBYTmBANUSyTLj4P4F8-1">
          <mxGeometry x="675" y="540" width="210" height="20" as="geometry" />
        </mxCell>
      </root>
    </mxGraphModel>
  </diagram>
  <diagram name="07 - custom" id="LUzsqtRzk_zkEjjoWkA1">
    <mxGraphModel dx="699" dy="344" grid="1" gridSize="10" guides="1" tooltips="1" connect="1" arrows="1" fold="1" page="1" pageScale="1" pageWidth="1920" pageHeight="1200" math="0" shadow="0">
      <root>
        <mxCell id="PETL4pHNEPdp8-49zuH2-0" />
        <mxCell id="PETL4pHNEPdp8-49zuH2-1" parent="PETL4pHNEPdp8-49zuH2-0" />
        <mxCell id="PETL4pHNEPdp8-49zuH2-17" style="edgeStyle=orthogonalEdgeStyle;rounded=0;orthogonalLoop=1;jettySize=auto;html=1;exitX=1;exitY=0.5;exitDx=0;exitDy=0;strokeWidth=1;fontSize=23;" edge="1" parent="PETL4pHNEPdp8-49zuH2-1" source="PETL4pHNEPdp8-49zuH2-2">
          <mxGeometry relative="1" as="geometry">
            <mxPoint x="1030" y="714.6842105263158" as="targetPoint" />
          </mxGeometry>
        </mxCell>
        <mxCell id="PETL4pHNEPdp8-49zuH2-2" value="" style="rounded=0;whiteSpace=wrap;html=1;shadow=1;fontSize=17;align=center;fillColor=#dae8fc;strokeColor=#6c8ebf;" vertex="1" parent="PETL4pHNEPdp8-49zuH2-1">
          <mxGeometry x="565" y="570" width="430" height="289" as="geometry" />
        </mxCell>
        <mxCell id="PETL4pHNEPdp8-49zuH2-3" value="useState" style="rounded=0;whiteSpace=wrap;html=1;shadow=1;fontSize=17;align=center;" vertex="1" parent="PETL4pHNEPdp8-49zuH2-1">
          <mxGeometry x="580" y="580" width="120" height="60" as="geometry" />
        </mxCell>
        <mxCell id="PETL4pHNEPdp8-49zuH2-4" value="useEffect" style="rounded=0;whiteSpace=wrap;html=1;shadow=1;fontSize=17;align=center;" vertex="1" parent="PETL4pHNEPdp8-49zuH2-1">
          <mxGeometry x="720" y="580" width="120" height="60" as="geometry" />
        </mxCell>
        <mxCell id="PETL4pHNEPdp8-49zuH2-5" value="useContext" style="rounded=0;whiteSpace=wrap;html=1;shadow=1;fontSize=17;align=center;" vertex="1" parent="PETL4pHNEPdp8-49zuH2-1">
          <mxGeometry x="860" y="580" width="120" height="60" as="geometry" />
        </mxCell>
        <mxCell id="PETL4pHNEPdp8-49zuH2-6" value="useReducer" style="rounded=0;whiteSpace=wrap;html=1;shadow=1;fontSize=17;align=center;" vertex="1" parent="PETL4pHNEPdp8-49zuH2-1">
          <mxGeometry x="580" y="650" width="120" height="60" as="geometry" />
        </mxCell>
        <mxCell id="PETL4pHNEPdp8-49zuH2-7" value="useCallback" style="rounded=0;whiteSpace=wrap;html=1;shadow=1;fontSize=17;align=center;" vertex="1" parent="PETL4pHNEPdp8-49zuH2-1">
          <mxGeometry x="720" y="650" width="120" height="60" as="geometry" />
        </mxCell>
        <mxCell id="PETL4pHNEPdp8-49zuH2-8" value="useMemo" style="rounded=0;whiteSpace=wrap;html=1;shadow=1;fontSize=17;align=center;" vertex="1" parent="PETL4pHNEPdp8-49zuH2-1">
          <mxGeometry x="860" y="650" width="120" height="60" as="geometry" />
        </mxCell>
        <mxCell id="PETL4pHNEPdp8-49zuH2-9" value="useRef" style="rounded=0;whiteSpace=wrap;html=1;shadow=1;fontSize=17;align=center;" vertex="1" parent="PETL4pHNEPdp8-49zuH2-1">
          <mxGeometry x="580" y="720" width="120" height="60" as="geometry" />
        </mxCell>
        <mxCell id="PETL4pHNEPdp8-49zuH2-10" value="useImperative Handle" style="rounded=0;whiteSpace=wrap;html=1;shadow=1;fontSize=17;align=center;" vertex="1" parent="PETL4pHNEPdp8-49zuH2-1">
          <mxGeometry x="720" y="720" width="120" height="60" as="geometry" />
        </mxCell>
        <mxCell id="PETL4pHNEPdp8-49zuH2-11" value="useLayout Effect" style="rounded=0;whiteSpace=wrap;html=1;shadow=1;fontSize=17;align=center;" vertex="1" parent="PETL4pHNEPdp8-49zuH2-1">
          <mxGeometry x="860" y="720" width="120" height="60" as="geometry" />
        </mxCell>
        <mxCell id="PETL4pHNEPdp8-49zuH2-12" value="useDebug Value" style="rounded=0;whiteSpace=wrap;html=1;shadow=1;fontSize=17;align=center;" vertex="1" parent="PETL4pHNEPdp8-49zuH2-1">
          <mxGeometry x="580" y="790" width="120" height="60" as="geometry" />
        </mxCell>
        <mxCell id="PETL4pHNEPdp8-49zuH2-13" value="&lt;b style=&quot;font-size: 23px;&quot;&gt;Primitive Hooks&lt;/b&gt;" style="text;html=1;strokeColor=none;fillColor=none;align=center;verticalAlign=middle;whiteSpace=wrap;rounded=0;shadow=1;fontSize=23;" vertex="1" parent="PETL4pHNEPdp8-49zuH2-1">
          <mxGeometry x="675" y="540" width="210" height="20" as="geometry" />
        </mxCell>
        <mxCell id="PETL4pHNEPdp8-49zuH2-18" value="" style="rounded=0;whiteSpace=wrap;html=1;shadow=1;fontSize=17;align=center;fillColor=#dae8fc;strokeColor=#6c8ebf;" vertex="1" parent="PETL4pHNEPdp8-49zuH2-1">
          <mxGeometry x="1030" y="630" width="210" height="180" as="geometry" />
        </mxCell>
        <mxCell id="PETL4pHNEPdp8-49zuH2-19" value="&lt;b style=&quot;font-size: 23px&quot;&gt;Custom Hook&lt;/b&gt;" style="text;html=1;strokeColor=none;fillColor=none;align=center;verticalAlign=middle;whiteSpace=wrap;rounded=0;shadow=1;fontSize=23;" vertex="1" parent="PETL4pHNEPdp8-49zuH2-1">
          <mxGeometry x="1020" y="600" width="230" height="20" as="geometry" />
        </mxCell>
        <mxCell id="PETL4pHNEPdp8-49zuH2-20" value="useTranslate" style="rounded=0;whiteSpace=wrap;html=1;shadow=1;fontSize=17;align=center;fillColor=#ffe6cc;strokeColor=#d79b00;fontStyle=1" vertex="1" parent="PETL4pHNEPdp8-49zuH2-1">
          <mxGeometry x="1045" y="650" width="180" height="40" as="geometry" />
        </mxCell>
        <mxCell id="PETL4pHNEPdp8-49zuH2-21" value="" style="rounded=0;whiteSpace=wrap;html=1;shadow=1;fontSize=17;align=center;fillColor=#ffe6cc;strokeColor=#d79b00;" vertex="1" parent="PETL4pHNEPdp8-49zuH2-1">
          <mxGeometry x="1045" y="690" width="180" height="100" as="geometry" />
        </mxCell>
        <mxCell id="PETL4pHNEPdp8-49zuH2-22" value="useState" style="rounded=0;whiteSpace=wrap;html=1;shadow=1;fontSize=17;align=center;" vertex="1" parent="PETL4pHNEPdp8-49zuH2-1">
          <mxGeometry x="1077.5" y="701.5" width="115" height="30" as="geometry" />
        </mxCell>
        <mxCell id="PETL4pHNEPdp8-49zuH2-24" value="useEffect" style="rounded=0;whiteSpace=wrap;html=1;shadow=1;fontSize=17;align=center;" vertex="1" parent="PETL4pHNEPdp8-49zuH2-1">
          <mxGeometry x="1077.5" y="747" width="115" height="30" as="geometry" />
        </mxCell>
      </root>
    </mxGraphModel>
  </diagram>
  <diagram id="X2txt9xWtzmHOwKiG19y" name="01 - mock">
    <mxGraphModel dx="770" dy="379" grid="1" gridSize="10" guides="1" tooltips="1" connect="1" arrows="1" fold="1" page="1" pageScale="1" pageWidth="1920" pageHeight="1200" math="0" shadow="0">
      <root>
        <mxCell id="0" />
        <mxCell id="1" parent="0" />
        <mxCell id="-uQ1WT1Tk8hT50v0npia-1" value="" style="strokeWidth=1;shadow=0;dashed=0;align=center;html=1;shape=mxgraph.mockup.containers.browserWindow;rSize=0;strokeColor=#666666;strokeColor2=#008cff;strokeColor3=#c4c4c4;mainText=,;recursiveResize=0;" vertex="1" parent="1">
          <mxGeometry x="460" y="180" width="550" height="380" as="geometry" />
        </mxCell>
        <mxCell id="-uQ1WT1Tk8hT50v0npia-2" value="Page 1" style="strokeWidth=1;shadow=0;dashed=0;align=center;html=1;shape=mxgraph.mockup.containers.anchor;fontSize=17;fontColor=#666666;align=left;" vertex="1" parent="-uQ1WT1Tk8hT50v0npia-1">
          <mxGeometry x="60" y="12" width="110" height="26" as="geometry" />
        </mxCell>
        <mxCell id="-uQ1WT1Tk8hT50v0npia-3" value="" style="strokeWidth=1;shadow=0;dashed=0;align=center;html=1;shape=mxgraph.mockup.containers.anchor;rSize=0;fontSize=17;fontColor=#666666;align=left;" vertex="1" parent="-uQ1WT1Tk8hT50v0npia-1">
          <mxGeometry x="130" y="60" width="250" height="26" as="geometry" />
        </mxCell>
        <mxCell id="-uQ1WT1Tk8hT50v0npia-4" value="&amp;nbsp; &amp;gt;&amp;nbsp; What is React?" style="rounded=0;whiteSpace=wrap;html=1;align=left;" vertex="1" parent="-uQ1WT1Tk8hT50v0npia-1">
          <mxGeometry x="30" y="130" width="300" height="40" as="geometry" />
        </mxCell>
        <mxCell id="-uQ1WT1Tk8hT50v0npia-5" value="&amp;nbsp; &amp;gt;&amp;nbsp; How do we show content with React?" style="rounded=0;whiteSpace=wrap;html=1;align=left;" vertex="1" parent="-uQ1WT1Tk8hT50v0npia-1">
          <mxGeometry x="30" y="170" width="300" height="40" as="geometry" />
        </mxCell>
        <mxCell id="-uQ1WT1Tk8hT50v0npia-6" value="&amp;nbsp; &amp;gt;&amp;nbsp; Why is React useful for engineers?" style="rounded=0;whiteSpace=wrap;html=1;align=left;" vertex="1" parent="-uQ1WT1Tk8hT50v0npia-1">
          <mxGeometry x="30" y="210" width="300" height="40" as="geometry" />
        </mxCell>
      </root>
    </mxGraphModel>
  </diagram>
  <diagram name="02 - mock" id="awSHhTHrl13otkBcK2rJ">
    <mxGraphModel dx="770" dy="379" grid="1" gridSize="10" guides="1" tooltips="1" connect="1" arrows="1" fold="1" page="1" pageScale="1" pageWidth="1920" pageHeight="1200" math="0" shadow="0">
      <root>
        <mxCell id="7FmeAl3M9rQzZqt5at2T-0" />
        <mxCell id="7FmeAl3M9rQzZqt5at2T-1" parent="7FmeAl3M9rQzZqt5at2T-0" />
        <mxCell id="7FmeAl3M9rQzZqt5at2T-2" value="" style="strokeWidth=1;shadow=0;dashed=0;align=center;html=1;shape=mxgraph.mockup.containers.browserWindow;rSize=0;strokeColor=#666666;strokeColor2=#008cff;strokeColor3=#c4c4c4;mainText=,;recursiveResize=0;" vertex="1" parent="7FmeAl3M9rQzZqt5at2T-1">
          <mxGeometry x="460" y="180" width="550" height="380" as="geometry" />
        </mxCell>
        <mxCell id="7FmeAl3M9rQzZqt5at2T-3" value="Page 1" style="strokeWidth=1;shadow=0;dashed=0;align=center;html=1;shape=mxgraph.mockup.containers.anchor;fontSize=17;fontColor=#666666;align=left;" vertex="1" parent="7FmeAl3M9rQzZqt5at2T-2">
          <mxGeometry x="60" y="12" width="110" height="26" as="geometry" />
        </mxCell>
        <mxCell id="7FmeAl3M9rQzZqt5at2T-4" value="" style="strokeWidth=1;shadow=0;dashed=0;align=center;html=1;shape=mxgraph.mockup.containers.anchor;rSize=0;fontSize=17;fontColor=#666666;align=left;" vertex="1" parent="7FmeAl3M9rQzZqt5at2T-2">
          <mxGeometry x="130" y="60" width="250" height="26" as="geometry" />
        </mxCell>
        <mxCell id="7FmeAl3M9rQzZqt5at2T-5" value="&lt;b&gt;&amp;nbsp; V&amp;nbsp; What is React?&lt;/b&gt;&lt;br&gt;&lt;br&gt;&lt;blockquote style=&quot;margin: 0 0 0 40px ; border: none ; padding: 0px&quot;&gt;React is a Javascript front-end library. It is used to show content to users and handle user events.&lt;br&gt;Engineers use React to create reusable&amp;nbsp; &amp;nbsp; &amp;nbsp; &amp;nbsp; &amp;nbsp; &amp;nbsp; components&lt;/blockquote&gt;" style="rounded=0;whiteSpace=wrap;html=1;align=left;" vertex="1" parent="7FmeAl3M9rQzZqt5at2T-2">
          <mxGeometry x="30" y="130" width="300" height="130" as="geometry" />
        </mxCell>
        <mxCell id="7FmeAl3M9rQzZqt5at2T-6" value="&amp;nbsp; &amp;gt;&amp;nbsp; How do we show content with React?" style="rounded=0;whiteSpace=wrap;html=1;align=left;" vertex="1" parent="7FmeAl3M9rQzZqt5at2T-2">
          <mxGeometry x="30" y="260" width="300" height="40" as="geometry" />
        </mxCell>
        <mxCell id="7FmeAl3M9rQzZqt5at2T-7" value="&amp;nbsp; &amp;gt;&amp;nbsp; Why is React useful for engineers?" style="rounded=0;whiteSpace=wrap;html=1;align=left;" vertex="1" parent="7FmeAl3M9rQzZqt5at2T-2">
          <mxGeometry x="30" y="300" width="300" height="40" as="geometry" />
        </mxCell>
      </root>
    </mxGraphModel>
  </diagram>
  <diagram id="Lt0QfNCtppPKwfxQBDog" name="08 - props">
    <mxGraphModel dx="715" dy="352" grid="1" gridSize="10" guides="1" tooltips="1" connect="1" arrows="1" fold="1" page="1" pageScale="1" pageWidth="1920" pageHeight="1200" math="0" shadow="0">
      <root>
        <mxCell id="L2yjmUAzMqp82lK3GQU_-0" />
        <mxCell id="L2yjmUAzMqp82lK3GQU_-1" parent="L2yjmUAzMqp82lK3GQU_-0" />
        <mxCell id="L2yjmUAzMqp82lK3GQU_-2" value="&lt;br&gt;&lt;br&gt;&lt;b&gt;Accordion&lt;/b&gt;" style="rounded=0;whiteSpace=wrap;html=1;shadow=1;fontSize=23;align=center;fillColor=#d5e8d4;strokeColor=#82b366;" vertex="1" parent="L2yjmUAzMqp82lK3GQU_-1">
          <mxGeometry x="650" y="390" width="190" height="90" as="geometry" />
        </mxCell>
        <mxCell id="L2yjmUAzMqp82lK3GQU_-4" style="edgeStyle=orthogonalEdgeStyle;rounded=0;orthogonalLoop=1;jettySize=auto;html=1;exitX=0.5;exitY=1;exitDx=0;exitDy=0;strokeWidth=1;fontSize=23;" edge="1" parent="L2yjmUAzMqp82lK3GQU_-1" source="L2yjmUAzMqp82lK3GQU_-3" target="L2yjmUAzMqp82lK3GQU_-2">
          <mxGeometry relative="1" as="geometry" />
        </mxCell>
        <mxCell id="L2yjmUAzMqp82lK3GQU_-3" value="App&lt;br&gt;&lt;br&gt;" style="rounded=0;whiteSpace=wrap;html=1;shadow=1;fontSize=23;align=center;fontStyle=1;fillColor=#e1d5e7;strokeColor=#9673a6;" vertex="1" parent="L2yjmUAzMqp82lK3GQU_-1">
          <mxGeometry x="650" y="220" width="190" height="80" as="geometry" />
        </mxCell>
        <mxCell id="62lOe2GNONvVcp_pzKrQ-0" value="items" style="rounded=0;whiteSpace=wrap;html=1;shadow=1;fontSize=15;align=center;fillColor=#dae8fc;strokeColor=#6c8ebf;" vertex="1" parent="L2yjmUAzMqp82lK3GQU_-1">
          <mxGeometry x="700" y="270" width="90" height="20" as="geometry" />
        </mxCell>
        <mxCell id="62lOe2GNONvVcp_pzKrQ-4" value="Props" style="rounded=0;whiteSpace=wrap;html=1;shadow=1;fontSize=18;align=center;fillColor=#fff2cc;strokeColor=#d6b656;fontStyle=2" vertex="1" parent="L2yjmUAzMqp82lK3GQU_-1">
          <mxGeometry x="410" y="190" width="90" height="30" as="geometry" />
        </mxCell>
        <mxCell id="1EdiAR1xuL0hYkyDy7zY-0" value="items" style="rounded=0;whiteSpace=wrap;html=1;shadow=1;fontSize=15;align=center;fillColor=#dae8fc;strokeColor=#6c8ebf;" vertex="1" parent="L2yjmUAzMqp82lK3GQU_-1">
          <mxGeometry x="740" y="330" width="90" height="20" as="geometry" />
        </mxCell>
        <mxCell id="1EdiAR1xuL0hYkyDy7zY-1" value="items" style="rounded=0;whiteSpace=wrap;html=1;shadow=1;fontSize=15;align=center;fillColor=#dae8fc;strokeColor=#6c8ebf;" vertex="1" parent="L2yjmUAzMqp82lK3GQU_-1">
          <mxGeometry x="700" y="410" width="90" height="20" as="geometry" />
        </mxCell>
      </root>
    </mxGraphModel>
  </diagram>
  <diagram name="09 - props" id="NfH0RulourmTtb6go_yR">
    <mxGraphModel dx="770" dy="379" grid="1" gridSize="10" guides="1" tooltips="1" connect="1" arrows="1" fold="1" page="1" pageScale="1" pageWidth="1920" pageHeight="1200" math="0" shadow="0">
      <root>
        <mxCell id="sbZWdnFzj0f_-SOEwZNb-0" />
        <mxCell id="sbZWdnFzj0f_-SOEwZNb-1" parent="sbZWdnFzj0f_-SOEwZNb-0" />
        <mxCell id="1qJgRPCny-njWIL1g2WB-0" value="" style="strokeWidth=1;shadow=0;dashed=0;align=center;html=1;shape=mxgraph.mockup.containers.browserWindow;rSize=0;strokeColor=#666666;strokeColor2=#008cff;strokeColor3=#c4c4c4;mainText=,;recursiveResize=0;" vertex="1" parent="sbZWdnFzj0f_-SOEwZNb-1">
          <mxGeometry x="720" y="130" width="550" height="380" as="geometry" />
        </mxCell>
        <mxCell id="1qJgRPCny-njWIL1g2WB-1" value="Page 1" style="strokeWidth=1;shadow=0;dashed=0;align=center;html=1;shape=mxgraph.mockup.containers.anchor;fontSize=17;fontColor=#666666;align=left;" vertex="1" parent="1qJgRPCny-njWIL1g2WB-0">
          <mxGeometry x="60" y="12" width="110" height="26" as="geometry" />
        </mxCell>
        <mxCell id="1qJgRPCny-njWIL1g2WB-2" value="" style="strokeWidth=1;shadow=0;dashed=0;align=center;html=1;shape=mxgraph.mockup.containers.anchor;rSize=0;fontSize=17;fontColor=#666666;align=left;" vertex="1" parent="1qJgRPCny-njWIL1g2WB-0">
          <mxGeometry x="130" y="60" width="250" height="26" as="geometry" />
        </mxCell>
        <mxCell id="1qJgRPCny-njWIL1g2WB-3" value="&lt;b&gt;&amp;nbsp; V&amp;nbsp; What is React?&lt;/b&gt;&lt;br&gt;&lt;br&gt;&lt;blockquote style=&quot;margin: 0 0 0 40px ; border: none ; padding: 0px&quot;&gt;React is a Javascript front-end library. It is used to show content to users and handle user events.&lt;br&gt;Engineers use React to create reusable&amp;nbsp; &amp;nbsp; &amp;nbsp; &amp;nbsp; &amp;nbsp; &amp;nbsp; components&lt;/blockquote&gt;" style="rounded=0;whiteSpace=wrap;html=1;align=left;" vertex="1" parent="1qJgRPCny-njWIL1g2WB-0">
          <mxGeometry x="30" y="130" width="300" height="130" as="geometry" />
        </mxCell>
        <mxCell id="1qJgRPCny-njWIL1g2WB-4" value="&amp;nbsp; &amp;gt;&amp;nbsp; How do we show content with React?" style="rounded=0;whiteSpace=wrap;html=1;align=left;" vertex="1" parent="1qJgRPCny-njWIL1g2WB-0">
          <mxGeometry x="30" y="260" width="300" height="40" as="geometry" />
        </mxCell>
        <mxCell id="1qJgRPCny-njWIL1g2WB-5" value="&amp;nbsp; &amp;gt;&amp;nbsp; Why is React useful for engineers?" style="rounded=0;whiteSpace=wrap;html=1;align=left;" vertex="1" parent="1qJgRPCny-njWIL1g2WB-0">
          <mxGeometry x="30" y="300" width="300" height="40" as="geometry" />
        </mxCell>
        <mxCell id="Qk2BpvY2CdCW3mAHljEt-0" value="items" style="rounded=0;whiteSpace=wrap;html=1;shadow=1;fontSize=20;align=center;fillColor=#dae8fc;strokeColor=#6c8ebf;fontStyle=1" vertex="1" parent="sbZWdnFzj0f_-SOEwZNb-1">
          <mxGeometry x="420" y="210" width="240" height="30" as="geometry" />
        </mxCell>
        <mxCell id="Qk2BpvY2CdCW3mAHljEt-1" value="&lt;span style=&quot;font-weight: normal&quot;&gt;{ &lt;br&gt;&amp;nbsp; &lt;/span&gt;title&lt;span style=&quot;font-weight: normal&quot;&gt;: &#39;What is React?&#39;,&lt;br&gt;&amp;nbsp; &lt;/span&gt;content&lt;span style=&quot;font-weight: normal&quot;&gt;: &#39;React is a Javascript...&#39;&lt;br&gt;}&lt;br&gt;&lt;/span&gt;" style="rounded=0;whiteSpace=wrap;html=1;shadow=1;fontSize=15;align=left;fillColor=#dae8fc;strokeColor=#6c8ebf;fontStyle=1" vertex="1" parent="sbZWdnFzj0f_-SOEwZNb-1">
          <mxGeometry x="420" y="240" width="240" height="80" as="geometry" />
        </mxCell>
        <mxCell id="Qk2BpvY2CdCW3mAHljEt-4" value="&lt;span style=&quot;font-weight: normal&quot;&gt;{ &lt;br&gt;&amp;nbsp; &lt;/span&gt;title&lt;span style=&quot;font-weight: normal&quot;&gt;: &#39;How do we show...&#39;,&lt;br&gt;&amp;nbsp; &lt;/span&gt;content&lt;span style=&quot;font-weight: normal&quot;&gt;: &#39;To show content...&#39;&lt;br&gt;}&lt;br&gt;&lt;/span&gt;" style="rounded=0;whiteSpace=wrap;html=1;shadow=1;fontSize=15;align=left;fillColor=#dae8fc;strokeColor=#6c8ebf;fontStyle=1" vertex="1" parent="sbZWdnFzj0f_-SOEwZNb-1">
          <mxGeometry x="420" y="320" width="240" height="80" as="geometry" />
        </mxCell>
        <mxCell id="Qk2BpvY2CdCW3mAHljEt-5" value="&lt;span style=&quot;font-weight: normal&quot;&gt;{ &lt;br&gt;&amp;nbsp; &lt;/span&gt;title&lt;span style=&quot;font-weight: normal&quot;&gt;: &#39;Why is React useful...&#39;,&lt;br&gt;&amp;nbsp; &lt;/span&gt;content&lt;span style=&quot;font-weight: normal&quot;&gt;: &#39;Engineers like React...&#39;&lt;br&gt;}&lt;br&gt;&lt;/span&gt;" style="rounded=0;whiteSpace=wrap;html=1;shadow=1;fontSize=15;align=left;fillColor=#dae8fc;strokeColor=#6c8ebf;fontStyle=1" vertex="1" parent="sbZWdnFzj0f_-SOEwZNb-1">
          <mxGeometry x="420" y="400" width="240" height="80" as="geometry" />
        </mxCell>
      </root>
    </mxGraphModel>
  </diagram>
  <diagram name="10 - state" id="DofYChhraYmceSZVvc5E">
    <mxGraphModel dx="601" dy="296" grid="1" gridSize="10" guides="1" tooltips="1" connect="1" arrows="1" fold="1" page="1" pageScale="1" pageWidth="1920" pageHeight="1200" math="0" shadow="0">
      <root>
        <mxCell id="yIJc1pgKyLIH8nqSVqXh-0" />
        <mxCell id="yIJc1pgKyLIH8nqSVqXh-1" parent="yIJc1pgKyLIH8nqSVqXh-0" />
        <mxCell id="yIJc1pgKyLIH8nqSVqXh-2" value="&lt;br&gt;&lt;br&gt;&lt;b&gt;Accordion&lt;/b&gt;" style="rounded=0;whiteSpace=wrap;html=1;shadow=1;fontSize=23;align=center;fillColor=#d5e8d4;strokeColor=#82b366;" vertex="1" parent="yIJc1pgKyLIH8nqSVqXh-1">
          <mxGeometry x="650" y="390" width="190" height="90" as="geometry" />
        </mxCell>
        <mxCell id="yIJc1pgKyLIH8nqSVqXh-3" style="edgeStyle=orthogonalEdgeStyle;rounded=0;orthogonalLoop=1;jettySize=auto;html=1;exitX=0.5;exitY=1;exitDx=0;exitDy=0;strokeWidth=1;fontSize=23;" edge="1" parent="yIJc1pgKyLIH8nqSVqXh-1" source="yIJc1pgKyLIH8nqSVqXh-4" target="yIJc1pgKyLIH8nqSVqXh-2">
          <mxGeometry relative="1" as="geometry" />
        </mxCell>
        <mxCell id="yIJc1pgKyLIH8nqSVqXh-4" value="App&lt;br&gt;&lt;br&gt;" style="rounded=0;whiteSpace=wrap;html=1;shadow=1;fontSize=23;align=center;fontStyle=1;fillColor=#e1d5e7;strokeColor=#9673a6;" vertex="1" parent="yIJc1pgKyLIH8nqSVqXh-1">
          <mxGeometry x="650" y="220" width="190" height="80" as="geometry" />
        </mxCell>
        <mxCell id="yIJc1pgKyLIH8nqSVqXh-6" value="state" style="rounded=0;whiteSpace=wrap;html=1;shadow=1;fontSize=18;align=center;fillColor=#fff2cc;strokeColor=#d6b656;fontStyle=2" vertex="1" parent="yIJc1pgKyLIH8nqSVqXh-1">
          <mxGeometry x="450" y="190" width="90" height="30" as="geometry" />
        </mxCell>
        <mxCell id="yIJc1pgKyLIH8nqSVqXh-7" value="activeIndex" style="rounded=0;whiteSpace=wrap;html=1;shadow=1;fontSize=15;align=center;fillColor=#dae8fc;strokeColor=#6c8ebf;" vertex="1" parent="yIJc1pgKyLIH8nqSVqXh-1">
          <mxGeometry x="685" y="400" width="120" height="30" as="geometry" />
        </mxCell>
      </root>
    </mxGraphModel>
  </diagram>
  <diagram name="13 - reminder" id="EPYHS9csVoZZQpRKW6wt">
    <mxGraphModel dx="791" dy="389" grid="1" gridSize="10" guides="1" tooltips="1" connect="1" arrows="1" fold="1" page="1" pageScale="1" pageWidth="1920" pageHeight="1200" math="0" shadow="0">
      <root>
        <mxCell id="UCzq-UxkKGO-OqH3Rzav-0" />
        <mxCell id="UCzq-UxkKGO-OqH3Rzav-1" parent="UCzq-UxkKGO-OqH3Rzav-0" />
        <mxCell id="iswMVSvITExKiBZoheTx-0" value="" style="shape=image;verticalLabelPosition=bottom;labelBackgroundColor=#ffffff;verticalAlign=top;aspect=fixed;imageAspect=0;image=data:image/png,iVBORw0KGgoAAAANSUhEUgAAAuQAAAP8CAMAAAA5iFsVAAAAOVBMVEX99uPf3s7NUBzG1cmMm5z28N1nfYX////u6dYsopmkrqy7wLlSsaabzb9zvbHmrpLYcF5me81sop0Spkt+AABOFklEQVR42uydiZbquA5FY4x4IpPT//+zz4PkOM4EVMO9RZ+zatUCk8GRdxRZdpLmn6jB/g+Cvkx2SHQ3EXHYA/pODQo5vDj0vd48QQ7Goe/25Y3GKg0EfZmU8uYfIA59N+b/NAMYh76b8qGxgBz6bshtA8ahb6cckEOAHIIAOQQBcggC5BAEyCEIkEMQIIcAOQQBcggC5BAEyCEIkEMQIIcgQA5BgBwC5BAEyCEIkEMQIIcgQA5BgByCADkEAXIIkEMQIIcgQA5BgByCADkEAXIIAuQQBMghQA5BgByCADkEAXIIAuQQBMghCJBDgByQQ4AcggA5BAFyCALkEATIIQiQQ/8VsbEEyKFvRvx6u90YkENfzLhHvG0/6cnNFOVg+ydb6jIZWOEl2dvN8NOO/CeQu0vU9AYM7DAMhr4W8suDjoFNEH/AEMYb3PJfb7rudmWiT0Iem+ANkPN4T7I/aDT7fjLIuFchf9CT26uo+wl/xGe7s2Lw8Y9izsaeLdLerq9s+QeQE3tN/zrkweL9OIz9Dyg39/v7IwJ3ubzZk3vIW6+A+Q8Ox2/luB3HbPD+T0I+3scHPPmHIffmoeZf9+TsTW2ZmXkYmm+F/MHKdddrtITxlPPbIB+DCw+yo/nLIfcx+cch91p7cvrpofbMTPEyQW+HnP4M5O6xGng8kyU85d3rgewx5N5WQzB4tPhfDrn5CORmmrzvdrQDuZtiV7T43UjJfsEqWBk4XyeShng91QYYevHwo3wYe0qLDLpAH668QZl0M/b3ftTwx/ifxlDoI6O9ywW7qaim0SwSy4cpGOIS00vLo5+09s4vGA92onKByRWePK2xa4yMJ/u4RQ3ko5e2001yF4OZtjylwxLXVo61i9FOCHranZ14w4g3yQYP1rqP2ZzGes9jG9uH/2EH3tI2GLSwXd1GNi0x5mOnoZ+bqGFv/1Qi9YxtFhvtiHR+IUn+NOSSUClc0SJcIf35QvUKF94p2HDk1YH1y35oPuF7AdT/EiycgR3uWVz1rIbiqxTuQG6klkroJBWe5NimfByX2jhO13BV/knWmYpFLocZKu/JZfcKObXSFeV8GiTl7kteIi2Sv+25c77fB9rph5LYOxkq/OuTgUebDK4Mr9toGNISffYr5TbD5SOs0+sqNLfZoTu/3cy7IQ+OyHDwcbzjyZ1hNi63Wki+MDO7aa9g7VdGqkvuljkYifcgjxfcsARJ1se3gQ25n7nVRsM8aCMQs49n/Fp2vG9DTnKkeiTE6ZMvcLoT/zlm+NRz+5+YjZ4NkWAXu+biuF3cZlhtLggL+BJ34slJwxXPbDBGm118Zzh955lxX2asnBVsjN9KUc+NS6ddlYi1xhyyB+MOLFHgEBMxHC6Ew14bxSYJeTKxeOppWWXY3HNBOg2MMd6/HdQzbeb9kLMQWkbLS8jl10ndm29GXqyxKqi1OpNttB8HLEc9DVaQxyWsBOIUP9oixOylZzWIRSPkfVhkD3Ktp1NkwycX2Wc9Ul1mjrS5zDdNUmDEcZNaz6knn7I5+cSTd5Je8bG5kZ6onTNcxfewii0NzMzafd3exzBf74r4JVkr/pI6ScmEfWR20J5qL/bcaKPIeDgr9OqatqltFOCOR+JPA7XnmLZ60EkJg/r0ZsiDT6IYu81mWV5qU1RHisb8QUy8Kti6eG6HjGrzLU8+xCXM7JOWHc9g2VjvYol7WmvcTlNSADSF4Oplw5kbq69WpkXHM/8UPpAiTLItOW+kFurJJwmGaK9hE54mBNkpCm+vbTJGpzF62kD29CGuSXudDXycXVHKFr0itdaY7E0xACE1eWiJuMQgZt5qo7SENCdJT4tYGi20RFximHd/0vE0YdrK7aWs8jOQl32o/eyK+MEcpjqqgnpHx139lWunxXV1C3I9QQrI7cJZSc+qz1uXgN1sD/NlDovjMzGaLsZhl9kVJTZnCHOB+IEcx+TsSoxfTpJ/y9GgzHINbqvRiZ4OD2dXxjo5nl07JUc9CupDU0C+bJKtNqKyjWanI62nHn3e1jnkgfGW3ww5bQ1iVJDzNJXdSnJVtmVVUO+jhnwuUHD7xyA3i3a0SSXksRl2ro4hokiajy9W3fFeCjEcVZKYKa+Zv1+WeXLi40RTxDMmRzqNPfxHa6z/6zSQIZsGiwRyszFs9KQnn7Eb9yFfuKTzNhpC/ydKzqncQPZhyMl27e3tg0GbI3XLcEXTauoIiVPGMHvvVcEa8nHHtWsks+vJaQ/y/r7uu+eVjrNIZfaEL0sD1JDPWkI+qSefKjsSu2mZq9rIkzOHRAkpwrM4l8RB0VbXMM/lyQtXWrv2xP8B5NIk521UJLzS1u3zkDfMbN+eQuRTT659rRyuxI5RSgY3OwXr7MpOkK6fXvLkg8pWkG+farMn9yrP4MsDntw5s+3Jp3rEMxvDHcXkNvcqw5hQFkn+PPbf2gPIjz25rcfNZtf+KOTnbRQ8edaLnjz2Bd+fXdkis4ScEuNEroBB0y1mt6A2MVUx+dA8FpPTfkzeM1d5jEPIYyexXiOULSywisl5kThae/LLylnE5IiZ9oZOE56cE4QUI5eiWl3MthBRO4cr9jlPvurqz13B/ixcmWPykzYKZ9Ki4q948pRCfLMnp61OZtnsOYlslkM9lNNoewUHPc/sFOau/LOePGYDVBlye3LRqtaIKUJXVruG/LJcYyMm58qTi3tye2e84GnyeGfoVpY7CdmWVcfz3JNzNw+RUuVWaHbtvWZX9iBfNcleGwWns6i4NhA9Bzm/P4XoNsgswS/TBmYR8WamVwWrM2mc+TSLzn6fR+BycnbXky/7r7wxjHbsyWntXIOnjnlELt39IiHjti0jH0xhnaUx3N7wr+TJySq6XTVRSweFKJ8G7Xoq17ozGpJxVLiVMTuf0lriljch1ybpaaeNKkdU53C2Pfn9jMAPzF1hGZAmNxWDQbGBSIc7cp5Qh7Z1RbNdsHX5jClZMimHHYZt0piEICzewt7v+55czS+n2iCL2N4+CLmRUR/W3EfKclMZsMggqOxEjdO4iTc9uR5zHvHUO4RMMQ1iO9DIAQtLh5O6thwkotzxjD1Rk5x1JldOEV4k47LDD9aJk3zCWBnN1jJC7CbkvYx8Zssv22h1tbUyWZ1lRsxWTC4nFR0EJPb9U23JyNSLwmmZmE9J7RmTbHEGl6DPl5RtydmUVcHWTsY4U0fnlVCaX37PE7fiiPDozTjue/J4CoxjLwXxNoyxz8kVKzO49iMW1kMR/oxkD6m4muXDlXpNuorb9OSNk2N38+hQNsbxiCcZmXpCkk3RCeYB+jbM0erU11PMrbfF9JaGOlmH54t+OarCaVZK/MdirT7OLjfNHuTSJDIja9VGK08ezpy00cT0lienPi1yMKn9E/PJOWV2y9RuSnxLM3L64kLInaB2uoIOftcFWzsZksFHI7NE0lcdtiEbJ/4MPB54craykjgz2eSQxyxObj3Kqc7klmnKw/nFNcjIsYsrl6OfXLPpyT2hyT/kmJx1xtbefI157opCHKepzNMOycgkRO40Fs9LcBGCVyUh30zlsY5iHi6tNTLvQm5kCe2wVG208uTaIHpabMXkyb3dV5OXyvDsEzdNxOlEZjHBgEKJtBKFn2U2Rc6kxJ+zNeqCTcCYrc17SV+LfcqvpCXFxqnYhrHWMJWbzKkSOpw+kxdJh6pfaflBD3e+sbYyzqpaMWFYVDzWwlXmrCsxb3veiS13YozhsE1TJG3LJdQY5Q3AvLxxdF6Fl/uQX+dRM9aheFmCmsq+2d51k8yNqj/Uh5gmHdnDG5U/c2cQreYTUYlL/lIcQyyhagOHd6NSNWupIlJ3QgeQ5/1sfn0A8mqvc22qVinrSdUqq2rJz2U9Dm9VoHKvtLlP/Ua1ffig1ajaJ21aawEsLSFvavstN7DVJHULrM253O9Ox7M1n7hbn45L6HwFeuCGHHrm6yubeO1Qf7oTemEXJxuh59vohweSUogvHMoDSxwvQt0NDxeCPqHhPNf3JhGb7oXbXQE59Hsgb167ERWQQ09D3o9/bN9EBMihj7jT31VhQA49DzkBcggC5BAEyCEIkEMQIIcgQA4BcggC5BAEyCEIkEMQIP+h2NpfVmOyloEkIH9YNjx34bdB7qt8xTs+AfmDCo9daLvfBnnb3l57RhT0X4S8vV2Zfx0uzKZ4IgoEyA91vXWvvLv33a7aOHf4uhDi660Flb8NcrZnQeZb3p58fb9DJPNsx9bFt8VNdFxxQP7rID9+HlvzrhfLfoCVp2919Iw756Zjyq8IV34f5P2fgfzFZy29E3IzTY6ZzTQdvXUcMfl3eHL6AOTd3we5myYmIt59vaNAjhziXw45xwdFjvLMQTO/G1lIpyE+di8/avP87ckv6uz5p5ReITw/PDG9MDg/Rlifoij1Wr1BeJwrvsiOHOxxklclmWna53j9mHlGSvHvgtzm56Pa/HXxbE1bvbvn/O3JL0N+OBKkLwjObwj+P3vnot6orkPhuEYc1Q6kff+XPdj4fiO0aZrZXeubvacQwEz6W0iysdy272rlIqJlBeGkDtE1fXwMulZgm0b+SrXMvJ5//pkEyM/5JqtgZrnuyJIQpnKEEEL439wiBbMIC1kfV09uJGOC+KuQ20XQBYslrvqc1QduQZ4fwUKYxV3zCsJmDTMx8FZ8CfOBv1JVxRleE3o+5KEyb7IGq6vNWyy16df2Pa6eXHvbn0F9l0ZM80FdP5He6OK2ZW9h/1YFYbu4azbidAS5Wema3U99dyUf2AfkLwi5/U0lqxwVfoer2ZyU1ziunlw0ooI6v3w9HcwBEb6Is1tBhNy62RQKaTcseVVBuA489TyryxDyzYjzEPJ9zk1y88NrQs+HnGKtgVF2xQKSQn5QPblohPMqa63MiikXwsPOKAroZQ5uw5JXFYRryJkH6wobtDd3fPPHh5Cz7aLyvmtCvwC5TAoWdCCX614q5b1tyVvVk0vIiWn/0+NEGlDUMPlHrSdQLPHUsORV+Y8achotrm3Rto75EHJz51rSfdeEfiHw9IU51p67YlMU1zWtDHNcPblEqSxX2LL1ahR4lnXGQvWyqjJlZcmHkA9l0WbBdLmNA0/N4PqVISdmljadTE3I6fp+lUVYeVw9+XzgSSTPQB7dl+9Z8tE38z9rxO1amQcpREFA/JUhdx7zkpCdQe4yKUQDn7yunvyF7Mo4hRgtd8NdoR+y5HEM6AByuOCvDvnO+TW6GhnktjbyxVa861jyVvXks4HnHnxOx1mgQFa4ybWfXamqlTUgp4MRz4L2lsqEIWkN6l/LXQlZljU62WuGsCgdhuPqyQ+HnMpikZ7tQLu/62VgyWU16WaY7iM/GnQbTkNMMysuEJ2B6QtBvthayrECssPZVkD1NUpXtzPmNw6rJ39FapRdIV8gWKyxYPAOf6if/e6KE/d9ct8fRQLoaODGTT+8jWchFlNtKS8sC/025GRrKa9rll4JBZT9EfaAJTHY4+rJX9R4PrktQmxTmXuEbLdto5KyexpZcluve70m/v0YcmPKP+x/fOLGAfmLWXLaS/maTHmsKulqI7ua6qur3Js45ePqyV+GXA9dHlcgeOFs++oHXlwpbsnXvk9O+0Hvq0jcldFkAjOV3DJOJx5BZmQL2ZZXgpxdIeS8jGlSG5l85V5fs/lyVD35Ryx5VSC4Likc7tNXxA0fXPIbLyodH3094iAJXvZONc8KkL9U4NmKCJs1mxuFjdvVk78oPc96SFyzzDNXNx1LhNeQt06i46+HRrZeNQJPzM96uRQiHeyiO076vulik5WYz93pA8o+f+94G2UWdnueJxjyl4P8NUQs1fSvvW1A06REbukFwk5APnYN/rWbrr0ZDUMOyAeU0783B6ReDwmTEAH5f16E95gBOQQBcggC5BAghyBADkGAHIIAOQQBcggC5BAEyCFADsghQA5BgByCADkEAXIIAuQQBMghCJBDgByCADkEAXIIAuQQBMghCJBDECCHIEAOAXIIAuQQBMghCJBDECCHIEAOQYAcggA5BMghCJBDECCHIEAOQYAcggA5BAFyCALkECCHIEAOQYAcggA5BAFyCALkEATIIUAOyCFADkGAHIIAOQQB8v+uSCQb4ocaYSnxTQPy3xJPcyRbzfon2pDTPM/4qgF5Aw3NT2F8Sgz5PKvHt7FddVYaKP9pyIWykqX5mwbASfUQGmmep6QrkfwJytXWBjNQfhnIhRXTE1xhqaWw7YjJqrB1Ygi5nh4C4zRP6b+VeKP84d7zNGsmAsovA/nkpAYhGLEogT0dsGnXjqbLhU2/qiAnrcXw/Af8a/U8i5w+VvPMj4ccHL8S5Grje1NtWHNHojzppFll04DSph1tOs0mVUHOo+fJQyAX81z5/bmTfs8j6Q7IFTh+LUuuDHJiw0/8HOQb4tI0w1KR5YQuda8aPuEfArnKHHIHuTxnyulT3dEMOH4xyMla1oEp19+FXE6TYCbbEIVrnHqmPwJymmdVdySeT3kX+vPz6HANyJ8MuTYOSXhIayUuQjvf2EHuHYr9B+W8c1KK9zOsq2Hk9/sdOrrTthHqNELmcUGFtc47lVaxBQ+ftk4UF4GnVuqrIzhynhunkjqV0yb1+SmP2gHkz4SclAv4hLef0oWAqjDKfs80Seer7uf4C0zOlFLcVjEvsovbjciWK5RbctcKZcmWNAnjLbn29/c1b4Xa7J/wV4g3ysVRZwLHT4RcWWfYeNwcYNI27HPceRCFh6eEnIUxyjbP6OgTQk2KhfCpYIO9YJa+G1SN6Kl2hQtLzkKIzCOR+0W3nSKFXEfbXqEV1Q0Ip0442oNWyFp6c1jGlAPyp0IufMDnWVY7fpwwrYiIZfAtPHwBcmYDKYfhDUuvjVYpuMsiu2bZiGr507klt0FpasldQMwsKIHcMk6dgDDqXNZj4JTrz5549KXDXXkm5MaCk/VvHUDKecfkWY55cqamJT/MrpAzrhTd+qKR5ihPHeimzUjTO60PzwnkA8ZNMOHVQ7Y3utmHXKq2NsqpFyDP8zwJcPw8yIN9lsHDVrnBji63vDQt+WF2hcOp/riykSbkqgU5JckUrrIrQ8YvHHUactV1wNsSn5+KOpmVuZGMh34O8mCvL9FzUDnLPk+u446TljyGlZ7MspEvWPJpKiDSkxozfmFicn/OQU59S07xmtmffvDJ0thyDAY9D/JoZD3uPcit4y2+ZMllMLrJ4yJr5A6fvLTkVb8wWZWK/ALIoHOBJw+mr1Bb/WQ5MbNC4PlcyHWOewvy/Zfpbf03LLnsWPLmQM6hJa8gJz2ae3BX4Hk2u9IPPFX3mUKE7MqzffLgrjSNbNwRo8STllyk7gq1GrkjT15a8sr4m2ubnGQ/SX4MuZ5nau/ms5Cr0TwbQP5kyNXYyMYjvmzJ4+NCxcAza4RaTvnYkjcDT+LRDJsYFvb4E22/ZJDxo07U+Tmcm4xh/adCHljx7mwf8uiTq2w7s9Ut004qjoXqNuQyWmBudpTKklczcW2TQ8qPsyvUxHnokjcYl0eMA/LnQs4O7kBsB3IyY6K+G0zujICTt9Wc4CgtAn5LO9i53Yhh086EYT3pvP9R25IH/1soP+JprmnGl76RhG46JicnlLMZ7xyfoJBdeSbkxoZOKpno1PDJw3BQQNaekVhyQ5zdx4nxtvO08o8nSe1GiO1cFlVOeFEqTqGZsgkwttftF1Xpw8PExxN/vc/XNtbMMT/zFo8+ZBzzyZ8L+cVOW5nc8GHbkrtpUH7Ek7QbAE1M5s6o7wYBWjfSZCcF7Od0GrkwS7UfIyntf1M8Moc8NFEONPF3KCdRpcRpntWpy5GWR8fjzaDnQk7MLASzdyKrH8znmSdL/oQkgDP7pEh8Xc52mEbkqBF3H+kx5sNth+DKoabioh76eOQ3+rwuHHAqXvq86xs9DPdhyZ8KuceHLn3Ii4wEue16H/euWnzcgDw0VLfTixqpZD7ufhjlhnFx8pXj41eUtza0wMj+EyG/57dyzwk0PuieNuhwx3fv/A47rOdscaHpB2hkM0kLqfKnQg5llMssx/8T66OQjUDwXQPy36M897p+qA0sLgTIf5NyOullfakNLC4EyCFADsghQA5BgByCADkEAXIIAuQQBMghCJBDgByCADkEAXIIAuR/QOWr+CwkJk8B8v+UiqLL9oUGTIMF5LVut390MWL7DmfKuCmWrGDJ/zjkHx+3ah+/vb39m99m+Q6nKRuE9xn+PORvb78DuViWRYoH21g9z4LzHROKJf9FyPnGB5Bfbg3z/k0/QmQBoVjfdy3xtuSRi3QYQdbFaVFi849CnmPdhPzxrywu7+/p9Te8r+uyXre/PLgp8G2E398PukG9cBCWKQTkPcgf/4TPId/s+F7Aa4lkX78NuXHAqdoFxAB5E/LHK4d8s9rMe2VovjzMkk913U4ByP8e5OLj42OLKrf/e6/bQH4z+27BH7dKeGLz8dvHrW/epXU81kgpLWaH316vV7Np5L0V95Er9ibiAYuPS6/WpfG3scQjRHTsr9sRwddvlS5kJMn/HuS3t6AI+Ue245ZtZefc+mb63TD5fvUFbq97WLmS80S8rt5qr3knCQe8y3jJNDJd4hFcnLRE14QbbjrKD/45d0UIscEqhBDkId+2mcVGulstUezHJA7Nh2Dm7YhebeSNWWYW0hnqC200S2bpWWYhNkiTKs+rOSPLvYjNGVmS2xKLZGZ59S4KC7FdTpojklaF8ep9v2hVTyFA/vcgJ2a2UIeVNTfGBTPzZq9FOCSFXLgD+nVLNs7y1TuXzaQzM0uHqI0w39Mqz8a2rzJbHtT66dkit+ZGvKEmezWZOPFX27PMlV3XahRhM4P6yJIj8DTI086y301mNOiWeCs3B2LfW2EHojfky16zOWZMihQi7+7HKrNgNOuOvjes7cDTdCBbBlp4U16uuC/sOpwSiAHygHC6O90g68+MLiiNd0KtNMgaEM0hvzALG1l6r72bXckhl1nPclUEfE+qIDeMK8SdgPwY8j3w/BhwTtYsrwtF/hZptXpXooR8d4rMeWsPcjtUlB6QW/Lt0nsb0kNejm6S1GqeMRgEyMMWdSG3QanhvFtljeU+Su8wTzIhXcgd5mu0zjnk0iYQ1/+zdy7ajeJaFEQjxD0DGCf//7MXhCT04OXE3RNI1Zo13dAYEygrByFrD5uS99GbDOs1uYhouhCR/ExLbsNUbD+j2bmdtZ4PoSUPbEpuX6cWiRPJx/W9vd3td1ry8B56o3fFGKF3BcnPtOSuq+O592xURER8szzdE+ZpKauS24K6X5P8Me/CmJ2avM8iWfSK0IaWHMlPteRzmziu+1ha2jYb7jdt4fv7JhuNZ1/yaqMl7/1zpc2WfOrSyd6kKQOqhC7E3yn5RyTrmZbchF6Wj6iBjO7ozGLhw5cSKz0wi6FmiJ5aPsp+FPu0yLf0Ya1JPgaSPzVd7Shn7Mqvldw+unSPXQ5b8uc/dtCKicuVbuqdC9IOvS0jpnJFeXWtxrKMZvFOKqfw3JH+WEYCTCuXw3LPMU3/b/R56edxuSp06di9614vRueDVzS9K79TcplHaLl2uWjJs+Etxg3oSrpXdBN9PVjNQ6n6pXvF9inOa0Iq4sOtEeul7Xix/9fR7wG7hf0siB3fNX0YouZ76nEZxi1mqcXe6fZRJ6MpE8UZT/5bJXddgs/1lvwjG8NlwgCuKHi2jutfmZ/rTONV/Brt+rijlE73jFPNC64H8LF8W8049R/zMc4LalR5+W3gttB+j+4F8WHVeQWD5L9S8kpEPZ8qpNeG/NioKyUaqyIiop42tTnu+1NJXrNorZVInGZrV8QvEaW1W2H3mW1QuVVmWbBB0UrSXagkw1knebcqv/ekJf+tkhsjRqSU3KxKHlaYtMswWvRhyibrU0xeYrKw83LI10pmcxhxnrzP+qJt6zPLJ+sJS/6NklevR/2Z4zTll9eYg52YE29jilIsvfk0XcPkQr9V8rtiRNXprw/V1TWSI/mtWCuBOCtIfq+2vBi/YpAcyQGQHADJAZAckBzJAckBkBwAyQGQHADJAZAcAMkByQGQHADJ7456PjkJSH4b1oKibWAApwbJ78LqxIsfSL6DKIXkf7ey0K9+V/o4KNqobwdFHx5Wlhz9t/zU3/dzSu1D8r/q+GF68kHb/WeCoo8Pa2ti0j/LYYbp8cfE5lIi+fUl/3ZS9E+VvP+m5MaFryL5DSQvr+6vacnV3hxJo+NPeSL5K9i4nihfeZp5sw/zGj58avLg/vLotc1k7l3K1Vp68lTt7lzB46BoNbdVz6T5sq/ZvvhpUHR5WHnsc54c7fexbLH9LsuMjDoJipbezdvrU071eNbsNI7uhJZp1Ku0n91esaIEyV/63Tf4vB+XE9unYckh0q0P05E/HnMkc+9bwzw92U7Ytj3Jz4mgaJWHQsurQdHlYeWxz0Vy9LKJ3mv7s9OT7FNF81m77Qftjsu49f8evklVfe5JbkRMheQvFYjTZLPq0fdhWYudZla2JJ+DZn2cSpmeXE0BhOXs4fEv46OgaDMHRS/X8WMO0VXPrW7FPCi6PKyV2Oc0OdrGH835XVsf0Cm6S4vSg9viMZ+9wVseJH8EyUOU9MP/YGka9esteSVzzYLkJ/HBx34qzbDsJwLvc8l7F6bskybK9OTKxkBsS34yKDqLF3261OaTQdHlYeWxz2VytPvJpC9iLaqwxRAfRniFT9vQZUvuXuH3WaRRv96S+8IcyU/fBPX2bPt85d4tiw9eXmnJh/kVy/1TeYe3W66s3njmQdHpNj7dxZi9NPQq+kFWDquMfU5vPB/+XOglTqBoyOdgaBMacrtsP09bLfm8zyh05sSNZ3sgufkfkp/vcA15EeECuPtJf9mGsiV3W/Sx5FmBKaJ2W6ozeV1J3NHHTrKoP94+e/aj1uveTcnDTyZb3TJ9lCk9n5w+vOKx1ZIbv+kpyaUd+RyZ/mxpyd9UrSQtRHwLpVfLlcL61b66oyc5ZySPF+Y70ed2v0ceFL12WEXscyG5i33euCs0uZ59lGY3bLXk1WuSf8Yg+Tu6DzMPQsEa2qbha5IfcSJetIpvPI3M/S8farPQT4Oiy8NaiX1OJY9Sn9c1VPn6ZVcuoXStJX9NcmM/ZWNDbv9E8ve05CovX9K/rdx4/jnJt1tyE4Ki1c7tbBQUXRzWWuxzLvkQYp/Viy15/66WfA7dGGty2Z2Gmpr86+XKcgE2a/L1lly/RXKzWZMvQdEf+3oMy7Hkoc5l7HNRrmTZMuVt+pBJniVMf78lr4ypjPn87Mx+3geSn8aUl21IC5mvtuTy3pbcez625ctbdK3KBRG11emzFvucSj7dRmbR0lkadZ/l8g7+tjKKp/5uS36qdwXJX5E8f/Dhe+JCR0LUA7zZkhe/xitVN/Vu78qJoOi0Jl96WcK66YmTyTeIJE8Pay32Oa3W1u430zTqR7ZFeIU/bb7Im3J3NyXf7IZfoJ/8nSj3PF+GwZfitsEbosun3F3bZkuepid7/7p9yQ+DouOWXLkOxLhcUU38JkVQdH5Ya7HPSXK0/cTbnegQHJ2lUU9jHh62K2fuOjRDODvz/a77zTi9ybbkSRr1Ot2nRvL3NeW2z8HGJatleX507z8Fc3TysN2SZ+nJZyQ/HxT9EZbtsK5/gn8y+Rfq7yIoOj+stdjnJDm6MqoP+wi7SPLk5ojdPmyxvMIPaLN3vvObbEqepFFv3V7sfALm0eQ/d7jtz5PcDrzw4cnVko7s85bddX3InuRperJzY7cqPwiKziU3bvN/PqLH+m0T1URlUHR2WGuxz0lydBT7vDSjaRp1ZW9soy3ccv8QH0g6zPtTO5InadRblwXJ32q5iNIqCZad05HDdZ3jlzfzbqsiPdn2Wu8/8TwIiq6yDN25B/GZhTqr6B3LoOj8sLZjn+N3VckPn6VRl1v4s7dE6vo3CUNoqvQvVZZG/QWWkyNIfl5zEclOoUn/2YTGZU3yIi7ZHJ7/F4Oiq1mcIvW5+DHMSi70cezz1s+Rp1GXZ8tkLzDun/ckL170pQuG5C+etv1l85V9vP8Vx1+H+xOxzz/lbF0HpqSA24PkgOQASA6A5ABIDoDkAEgOgOSA5EgOSA6A5ABIDoDkAEgOcA3JRRezwJKoBveSXDdN0yaat03HZYA7Sa7aOp43pLITObRcB7iR5EZEp9+bNxrL4V43nkZkmZxkXqHTFQAXl3wkd1ragzlRAK4nedahInVapgNcXHIp2u28TAe4uOSqaVa8px8RbiS5LiU3bbLO8HwIri15t1KAJ/XKYRwhwI+XvFkrYV6YSxzg5994trJXlLdIDheX3NiwhKxkibWmXIGrS16pqaluTCb58mj/MD0Z4KdLPg1E1GkHikkKlB86zTUg+Vl006hcY2H4CtxJ8q6pJZ++XhWP+gEu3ZLXK+LzXB/uVa4U69IRWrqlWYdLS67ynpW8JO8aihe4tuSmLE3SAeXTE0++KwRXlrwcT66apjNIDreSXOdNe/KcX1GuwM1aclM3tZhU8ponnnBdyUXX2bf1R8fTCYc6xmfBlSXXTdOk1Uo7Op7eiNZ0msOVJVd126VOS52PVMnn2AK4lORGRhKFi9FYPOKHq0ueD1upilZbGGgLl77xPNXYc13g3pIDIDkAkgMgOSA5AJIDIDkAkgMgOQCSAyA5wJ+Q3GjNuBO4ueTTdLWMk4VbS95OE9bSmMOda3IRxRc04d6SGyM1c6bArSWvqqpukBxuLznlCtxccmpy+AWS04cI95a8nLOW7yXDzSSXfPbxmvoF7id5Uq6oMs4Q4PLlSvJgXybJOc9wqxtPXTdN5LlpKVfgbpJLVycT14rizhNuJvmoeNvppQo3TG0I97vx7ASv4eaSK4PicHPJKcHh5jV5/lhfuo6GHe4muc6Wk0hxgOtLng211TzxhBtK3mY1OpLDzSRvU8mnJ56UK3DrcoVRiHAzyUW1Kzee9CnCfSQ3TdNkSbOqaTpKcriR5HXdqvSRfkdDDjcrV4phKzUZ4nAzyYthK8JAW7iX5CsVDAMS4e6SAyA5AJIDIDkAkgOSIzkgOQCSAyA5AJIDIDkAkgMgOSA5AJIDIDkAkgMgOQCSAyA5AJIDkgMgOQCSAyA5AJIDIDkAkgMgOSA5AJIDIDkAkgMgOQCSAyA5AJIDkgMgOQCSAyA5AJIDIDkAkgOSIzkgOQCSAyA5AJIDIDkAkgMgOSA5kgOS/ziMihbUqZcorbjgSH4dpG4WY3XTHr+ia5ozmwGS/xzH63TJHDtet5oLjuT/YfVRt/LC1qOxEpcuifOrNE0rYrjgSP5fNs31CwXz6HQirKjDUqRplBgkR/KrSN41jUp9Nbpp9JHkXG0kv4zkqmm6vLaRtmkOJKcgR/LrSN4mBblryuXA4rrpuNpIfhXJTdO0ZuXOdf/es6b/EMnfsTPVtm03lQ51XftmVY8Lbeel7FpVqW7857Bm3kBHkks3rVGb+9Tr5XW3X3W3SI7kb5F8FLGe/1/PxYFp6xlXX7S17uYVXjm/GCRX7hXd1j7b9U5xaZpuv8bhaiP59zEidT3+16nWC1nXWmRcrL3k47+KSHC6m7YW27grL3UrIp1vt8t9btUlSA5/S/LR1kli7YxVIiLKK9vOjocVZlbaSq3cFmHF+j43q+vdqls33Hgi+Xt2Z2xLbSon5GSssWW2K0/8CuNqDz3qa5eVk1z5FUuRnu2zajYl32qr27ppVnpk/s/euWgpqgNR1CKUqwQB/v9rJ+8HEMRubdU5597VI0CC3W6OlUpIIED+I/nwm5S4LW+fyvuyhpxP2ZE+ROuB6biDU9u1rPMHkFvGFbo7AfmjnLx3RsyO3F6RUqQ0u+whP+WQx2A9QG6CeGXLxBukrPMnkJvrozMIkD/OyX1aJU+UpPzKEvKYZckgj+q26txreHb1toIgTw7IH+fkmWEaN46qOPka8liCtur8UXaFWZBdAeSPc3JVBi8SdDoUrpiYvCyyqNP2+myF17QfkKAzCJA/xckNyhy0CXmI1QvIyyIrJ6/Q3G2zD8ihpzp5ypVE1BaQx+ZlyJNzbG/W6qyNUtkc0ZIHOciTA/JnOLn4Bif33TbkoetThR5P7gP+cfTK0slNvLLOeasbA8bRGQTIHzVAyw5DibSxza/YvbQJuaW7M2CHM+xILFfPdp3LBzz9vhtGjvHkgPwxkCuf+0s42WErbRpUuILcn5BGIbL4Wvw4xXWdJ6a1LXe3ejTxZBAgf0y44rMiXOwhRXFfPJa9ICIRjjtYRCiV2KjzJP3Sl7vVA3FwcugpkPMGkFxkA9eQn3yJtIOLSrbqXFFuNm8MTWnNM3Po2QfkTxLfffzWY/UsxSMSBxg/UYvJhQD5R4lF5cC2dNOkRZdokWAB5B9FuVQ2dtsL+MAB+SdRXrREj5VATA7IIQiQQxAghyBADkGAHIIAOQQBcggC5BAghyBADkGAHIIAOQQB8ucIz78B8m9Xj2cmAPnXM45HmQH51zOOyZsB+XfH4+YxUEAOyN9ETNPj6zyfOzAOyN9GU9M8vE4z9xAYB+TfDLlZ/hCMA/KvhnxzilAIkD8H4HmeJ/NP0zQ+oSdmYw5huD6uD81GsUT5YlkFT3qTbKmqWd+aDRQC5I+TZdF4tZbjmhonT+jcRC18fW7m7SrmZpp8HfVmJ6YVAuR/BTnLpF1b00neyVmjSaL3ekKFSL8mIpIK5KsqDPWTiMzxy2EpQj8QIP9byE2YIdI04hkWEZHJb/uXabarTciLKmbHuFD4clhJAXJA/pcNT7KA8skRygZQC/ccCOWi4ckryJdVmANulecq5P3+ckIQIH947mQ2bE6T55WWDJfZlQ3IyyrMAYdwNSjXkOOTBuR/6uSTizo8r5NTBfKKk2dVpAN7To4MIiD/Uyf366b4rWU65ZCTZ1WkA3PNyRGTA/K/dnIpfHqKusPJc2O+7eSEtVQA+R87uZS+vlyA+YiTb0JedXLkyQH565z8JNp9FwswP8HJT9vL20KA/C+cnOf1QJWp6NSJCfTm506OoByQv9DJmXw6UOLolYgz5akUynrt73dyafF8JyD/uwFadoxJgtR2X9pBWQ1nEYrdJcHrzdYcWF5VccDJTz2anoD8LwdoGUVCWcjtm5M5k0sszm5wizs+mxEr21UccPKTdOj0BOR/Fa6UiZSTX4B5onwf+z2hhN1gTjvKKjYWwN0MWFpQDsj/QryCPEC7t4qzPRwg5x9BzgTKAflL3wXv73kEnELIIwLyb5dIizQiIP96yhGuAPKvpxwfNyCHIEAOQYAcggA5BAFyCALkEATIIQiQQ4AcggA5BAFyCALkEATIIQiQQ9C3Q84Kz95DXwh536Wp3vq2BeXQF0LedoAc+n8gl17hUTbouyFnPK8JfQPkQnXIT8x3lIQA+VtCzppprkO+q67FGuPQ+0NOXRtJlb5ru54j5F3fdVmqRaWXfUfu/mg7mDn03pCLwVSFqQ817+b/LkDeWkWyqQ3Tv+lXbipzc4t0mIACemPIlWE4NC1Zw03iuPXUa2WxC8d0Yohw7HEkGaH3hdziTDF9ool3qwp1NchTHBO4Zn9TIGaB3hFydpFKyhBqtu1G4pr1fznkIUoJ/3rMVRbWQ4D8jSDvbaSSzVWeByPbqRbxDl7mY1zMgkXfoPeDXJlQJWf1NuQhXunKKJxNyALIofeDnBYtRr1NNyD3cQotEyrKBD74hKH3i8kXLcYjkLP18L6MwF09iMmhN4R80WKUA5C7rS6fY3/VfoUA+RulEF2LMQQaHBuPO5BL2wrlzU57n5CgPwh6T8hjltshGtLj3NUhN/FKFq1ImWmHAPkbduuziGpT9rt3HNchNzmZFK2Y26EH4tB7Q+7M3IUpNnbpNdR9tHSj1v7M4pUsWlGwcej9IXerdfoXfWfHsqgAeRuVd+1niUcB4tAnQK5R5eTqJCLZiswsIsLlgrXFis74XKGPgLwwdY3wctnxxarMMG/ogyE/PWZJZgiQ408BAXIIAuQQBMghCJBDECCHIEAOQYAcAuQQBMghCJBDECCHIEAOQYAcggA5BAHy54lJ4bmkDZEiQP4liHfn8xnzL27opX8YQP5ItefznbOi0zT9F38Z1bWvoxyQP1ByPtenpuNpntd7m6b5L5YKYBFt5oD8LgPsu/79gl86n3ceqJ6beWvnfwI5C53PDMiPf/ednX6x+JUQPeV9FR+jTHIDcqb5t+EK3Vqcmkm94ltt1dIE5Pe27sy8cPrnLxpC7RM+2MXH2DTTLSeX385KSpfLjdt1uFxe8CldLsMacoQrdzTUOxERofbnbtw+A3I+n+VOyPfXlv5gyK8ryPtn/Mm/FHJtCL0IM8tvXPApTn46n+leyNfUf6uTA/J7PPgclvjkGMDY3F3YDPMisp/AX9rOzJaoT4n7WxPx5LMpnvqiit4th6vMedmyF3zzvcXwl+Z5bppG/wxRt4Gc7D5Op6TDPgNjy9RvXjVeL5fr6AEarlezaeTfJQ16hz4hvOkxnVHUkc6oX2XgskT43eR6dW9Q+UrVdTiJufDo9lO66JD7SgfID8e9y4ULybdDwwqHISErHlCT9GjdKeSjiqDwZ2d/PARANuzX3nPOIDfn0C3IYyp4aqIS5H6nd3QqDps3vCyy5coXQ/HFYWY2vSSdYDWEqCHomtdhpPa8vzhlLOuMXx7Kf0cMl1H598V+/2V9EUB+TwaDVpFwSyIm5bKCXIWboFVicljuC5OIdExORCTp68GcECN1U12ra+wpXa4/32rpcga5uYiG1VyEA+R6W4Ri1pDJnjNnAU1DIkJTLa2ojFmKULBQIdK7lKknXHVQIqKugUMh0sjmv6reHERojPfFSvrQqITU6M8wJciWGErIhwi5LkEigz+DiciUSb/78yLEr4S8XzTurOuSiAgFuDcgd6s6h+4IEdE4S5olVC2rYHPPtGZnutxNyLnPbkAWEQt1vMjsNykYtW1VZK7N/gQR4qrFFnOdsojSkGetE/YVBCDFopfNjiqWca3rZax8V7o7Kb6NWGL03wZq7eS+RKhTRHwhLj65Fy0e/HGQr/vNfL6cJfjwRriizF/bQLidXTHImxM4ug0b+zelUlbQhDxqt62g38l+CtF+5lzsLiGfXVtDdiD3KNcanuzD5oRw2fAcLlex70L52GLLyC3dzNHI7ba9n2pO7uocU1C0bngajzm/JGT5OMjbJeTRfSP/G05OwUt4E/JYRboNlI/xlUreTHvzQ+chfQ1yXqdZ5jJcmXcTRibyXfT90HZwXYVcH+Bg2FRJ/o1cQn+NJYaak3M4tQ45q+58fknI8vlOnoL0EMlsODmFUzch1yd2yirdBuHeKSdB38vlmcKH8uQ1J/ct0aneumXbJBwH3kkhDqNrbNYhd7+qqjQ9eYlnul98pVtOfroNuYka+5eMuP3EmJyXO6jE/YiTF60gOmeSxb1zNIzMQ/p9yAsnzxueLDaF2Mw1EliUy3QkzBeQK5tAHMcq5JdMQyXxPiwy3mPE/Vpz8gOQd64ZBMh/kF3pf+/k+oSu9+qSk9/3eTCztIcgrzo529TKvDMy0ZxhOR+3IddbV1o0K5eQj0MQ3enk1185eXfuhF/S8vzEPHm3/BZUpclXnbwGOdtO1HKJFnUv5Is8+VEnL/tBbXJkanb6Rn2eI4YaZUxuGokiwrwXk8dfdZu4yyLtco3k7sTkxyBHCvGgYXbLoX4xRmjXDU862vDsOOhUd/Kb1C/SL/c6eeBce3m6Zr98CoNZKCFUOvnV9xLVG56mGbn4VXUlXS8bUMdsCxeBzI+dHHnyo6Ksn1JyXiXlybvQRq06edl+XSffN5z8QI/n4oTSpQ/E5CnLUmQmeXlCBnkZXYwet9zJVXEbbLU3uch6DIszYomQwAxZFn2ROuTrNDzGrtwRr/Q+VadftOxw7DyDErhgx3E9Ju/dDeBTweKr5L49VZ38do+nLMpoWM228DEnJ59AzMMV2yaOMdB4tbiZcIUy4zX1Uw6owS/iJiEp4oAOoY66Sv6bpdtTrhcLMQ8udcj+aiq0d9lVaC5Sh9z3qGYhkcJQ2/soN92RYbSKG19utn0KWdnx5pqNneyKuSXMOK3Wp3DdgK34Wfd+BJfcBfnysQBxI7Q8sisnz4a3zHHbDutqJLtvUgxEbvDVtUivmHzKqPepAOh1MB3wmdcPvpDrR6JrrCPDL7s9WdnLxDNSCT/+yo5lGd1FqpCTf6tj/tcB5IejcqH2bBH/x94ZaLnK6lC4GYgrRbV9/6e9gICAWrX1/NPx7n3WOjNSdSR8TUOgEAJJUSPxcXpGeBco0evhCpNpsiFKjrfMJmg1Vdpbmpcjngu+ys9TSdOtZp68hpzD6T/PbFjfPolOR36qn6Mn++qfn6jiisa/OB6QDPcEuYwTrsK8Qw436bItrHXRm/cd2+yMcNz10S2Px4OboLIKOYfH6nP74ZtBBygXIUX5DA7xh9MezkqNezZzOE4v5Dfx96hvyVOWo0rqsqiNLO/sC14i9HjEcdL0fNkvRZ5jzCA+qPi7QiScp1aUcs/JZUXU9Eco1J2kPCPdVNI5mdsgqVL++RnRODydHw18WzVw8Vjw5O9hLrnRpdp3fHxVUsvP2yCdtHiPJci3t31m//nBRSKERdYgZ6mTeWE3da6qOq84rxojPjeX74O8MjxLINY1WzNoeZwMy9sGZt+VAuQHOa/zai9fXr7FG9fctuKVenWRozfdHi7hjSLeY66j9r29Y6tinm2zmZsC5H+jTyyt0Qp2mKvVphUB5BcQy2ZI8/9smRsgv0ZjMiBfhpx/zy6AHLq8ADkEyCEIkEMQIIcgQA5BgByCADkEAXIIkANyCJBDECCHIEAOQYAcggA5BP3fQq4MdrOHLg55qwE5dG3IeQ/kLPWCgkRofED+Z2R2QK60gfsH5H/w2cM6U3t4JUAOyP8g5BI53efJdQ25QeMD8i+XGvdMDk6ZWmPatOFmWNGbjd8Wzh4bY0+2Z5gQxbsCdzjlZWyZLUmbTil7C3JFLb57D8h/K1Kx1JoQrhjdtvZIx93GZ9uOm/HVaZdxHZUgl3COkejoldLavzfACCD/DbGDWsVlfFqHt4jjngL1JeQi0mqTb9haF7DRhvwtTIpmdOtP08jCAPLfiFScg00L0lqmjRIRkRicR08uE+RK61eQxyOa3idahQKs+gbI//sOp49UstXYWt36A+d2ecmT3+YpRC47nmZc6pwlunJHPY8uHvEKIP/PZfzSkVwQyrEvKkuefDO7Mp3YhvPSPQE5IP8VyKvlUVPKm1JHc9OTl5CnKCW9T9I9ATkg/wW5TidV1JesHvbkKm0OROE3A8gB+W/G5GS0zradPMeTCzw5IP8esU/sZUmP3JO/F5MX4coNnhyQfwPl41hQ7ckPZFdKyDm9Z9qUXQHkgPy3Mfe58pgAMSWQ8aeaIKdyS8567kq8Bet6PgwgB+S/Fpj7mCV6XQ8it9NIjt+d0wU1EXIJ9EoVoYQdmSncwsRxfXhyQP4lMUti2jLaTq6d9HisjKY8J9Mak/w5G18QPXh8OZsPA8gB+Tc48+h1FfnJVXGbYh/LaEOSQT6WTVkZ9r3XNMvQR/n+mhs8OSD/Jsw50S5CJNmOzETZjsypjIoNg/MClnhNfLX+BQLkv+rSeXF3Zb7J+q7E9S7D1cuAHJB/Y5D+4milkHdcAwFyCALkEATIIQiQQxAghyBADgFyQA4BcggC5BAEyCEIkEMQIIcgQA5BgBwC5DAFBMihtySkMFH9HbFSAsj/BOK6aRqBHd6B3FrupMXhAfk6oH3/qQ8W21DGHLrL43HVVf+pP7TUOxtzloMA5FbDqArG4X7v16/puh1NppqGZLWdns/H/G3x8/NzUXt29zsdsacINU0LyD/ysqrvFUXzOx2BnO/3HZC3jRZedeQ/P/8eclFOJF9gz5eQL9iTWXRjAPkHn52hIbz/IMtBP2sU6nv5EHLTlOuMykM2IL89Ftz7B1L3UM8XdbF8VvQd7yzvsKcaXnwwLtsTkH8i2wT3oe+ts77LuHKL8r8Vdn+1HMVuT/7Cdy9CLiInQ94NQ2cR7NbvW39k0cvA4gN7Hocc4conTT+QiAgNwbSsZp7nxnz7EHLVNEchZz67phSY69bj4U8h32VPPm5PxOTvi7v7ICLMLCJTOx1xofsgp+OQn/92Jl/Nefhwnif/Z/ZsGgLkq3ANnfv4jBFAN9y470LAOH64xoGG5F0qzzN0ndVQxpTuFiGtmBqFqrPK2CPLgdHz+bS9Svt/jLod5A9X9kjxuFfWsOJe/nk+eGdV7XPzzUUNXV+y5jyrv6+Kj9uPv1DXuWo59aE8FdBp9qQu+wu77clIIW73tkISyzomcfa8R0OmV8prpHBuvhtVhZ1eKm8Uehns5q7o8ZM0Qf4sCh7FUXHNY19V7XOrYaxqX1arD7/YnzF51OU3SMbppwI5zZ403qA/Zk9pGgbkLyNEa8UhWbhTU1zKS7nBypOT1ZBDbtEZlJBFSLJGcW0yrvYsbavCv8kTc/55S0QWVndjjpDbYxGypMe1dcdzsoDmSSJiz5B9VfVvzl6EulCdxFqsTA05E5G9ZHosIbIXKVdwnj2ZiKgI/bfsGSBHuLLaj+pERCQ6L9cYvls0jA1MS/Ff5cnH0yfI5e7DTkccT43i20RiHzMqpb3coH6xCqmHOiVtLOP+say/pnRKDjmFE2Q1z1NX1UGuQkeTso6nZalTi5C7mvr3Rfwb7C9W2fKnZ9kzh3zTnuGD8JSB/QtCbs3rAz2m4HpcI/gWDA2slvpVlSfnDIPgeHxrcNibwjcKdffUJmSMNuO/MSNAbtpKo153PP1jZVyzGw16ZNHKIyCys6quDzneM4CXopFeZBnyzY7nWfbkHPJNe4430adMYLkg5MmrWat2RSOEDEO/1PFfyAbkkHdV2OkaRfI2CWs/Tx6RvFOXHdmVnOvigH08c6SqiVepIb8PcgRy9Q/smUO+ac+xFq2eOQpAnpl+asfkmIJ32eN5KgxmYacrKNtEOP4LH/uqNc2uwaBVyMeO53Od81lVlyD3Ub3qVjqe2578NHtmkO+wp5NF3LSfT1W+IORT6w3Vx2kw/J4YssKAlhslb1yelMJQVeXAliHnVch9p9RxLjurmnjlEnIRCrHGcchPs2cG+Q57jh3PVk7YBuGSkN/L32rPsye7ssOTqyLdtdDxZJYqPXDUk/tNX3yekfdVdcmTj9mL2Et8B/KT7LnhydUsHevMd8YI8DXDlSktsOR5YvmRmDzl6PIY0qUZYhvQQnZlNppx1JOHUP+xliefVXXJk8utCqCPx+Tn2DOPyTftGSDHYNCieAoRu5QNoPgKh2ZTxzz5rB09RHmrzDqeoZX4I08+fh7YsudEoJm2sJtVddWTp9oc9uTn2bPseG7YM6QQkSdflkQvobK4tDC868ZHULIRD3oBed2Oo6fMRmEWIa/nrjwzWPd4ck5Zlmf24TD1ZmdVXffkMsXkEm2QpTpmAfI/sGcO+aY9A+QKkC+78n5sI4ppqjqG9C7o7jrtrLrYFDyal1cgd+PYvb95lw1ecN0qtTursis2upZb2ptx05M/fvykFc7DldYFRLRW1cXsin/ObioIV0y1G0bwp3dnNzpUOteexWDQLntiqu26K3ezN/zsH7otep6bKDfxouvu0yQjdnOhh9hG0nXjq1bhQztd0Wee0vfn1r8LUM8nl3GGVvDLM09eTW/hMKGrSK/4Dq6sVXXJk6c5IhyS3f6Krswd+bIhizXugy1QZ9lTTfYcDtgTX5pYd+Xeb/lx49tiDOmyFoM/pRso5yVNOZKJjXu6YvrqywTRa8pn3wwKKcHHsid/VnO4OE3gmpys6KYxq1VdGwzqhjjiGb7DM0h/n3JHajRGqoeEAnWWPbNZX8MBexpAvu7KRUjRNPki23c5T1qofIKGLaLsy5BThC35TVUKubOpHrzbk99E6PGg6hb58xVxvc9vP4jybwuxEMmrqpa77M67CvECLran9nUv9q/OCk61Jx+wJ8KVl7682m25bpTU+rxy0RzyatPmfJPzVcqpaUwxiMcsLDKHnJc7r7wwPas6rDajXoWc8xu4Q17fnnpmnY/tudQt37KnkEHHc4PzN07ZHHg4OjDBbTNbO+TwPW5nP9XiBbxR8J/bk/2QA+aT/4FPFGq1xgpab9lOa0MCyP9I3AQzvNuzOodxQP6vKY8TpqHDkJ+2cAEghy4vQA4BcggC5BAEyCEIkEMQIIcgQA5BgBwC5IAcAuQQBMghCJBDECCHIEAOQYAcggA5BMghCJBDECD/L8SEVoMuDnmrDb4aDF0bcqW1bhktB106XDFaG0LTQReGXEQZOHPoypD7pZVarY1C60GXhdyvLOxiFnRAoctCHmMWg/aDrgu5o7wF5NClIb+5eKVF+0HXhXzseSImh64LuR8QOmv1agiQf2ekYgiMQ5eFnMdIBYhD14XcdTgJe5RAV4Zc4Mahy0MOxKHLdzzBOHR5yCEIkEMQIIcAOQQBcggC5BAEyCEIkEMQIIcgQA5BgBwC5BAEyCEIkEMQIIcgQA5BgByCADkEAXIIkEMQIP9LUo0uC7D6MyD/yzwrxQuQNxXkNfWZmNoWOxMB8u+VNE0zX9i5PQC5abywOjQg/1ZZnBf4PQC5ZVwbo0E5IP9WsW4spfI+5PbqVqzsT+y/Bci/NVqhBSe8PyZvGiPCLKJfRO0QIP/VaEVzDjC7wEPT/9o72+XGUSWAioJmuqDmR97/Za9BAqGvJHcnjpXOOVs148iyasp71GkaRK+RXFOIIemV5D5GV8etUl6VFyHIlMtF1jvH1YsS6JH8NYSYJ7/mKxpiJTTJXWwHwsXng/TfCWkO7S7VC8S03ggVipBI/qpspfyRu7MxqxZLZ8klxuhVfYgXkq/qynIf1EqLqgsxSrtPklPNJO1I/rJspetZfayjSG2RPMfoys8ufCj5tEpeP5KX9KUc12VoikVI/opsJc0qSyuVqEyTSMvJYwx1/+ernHz4JTAtEpf7ROYbxo9ZuyihHMlfla0MqvYMe5FcusP/l+TtLT+Nd5AESulI/opspQrY85WefCyS9+qiXEguH0ueYvCVHBh6IvmrspVV9i75UidvZcHrOvlZTr6VfKnXUF9B8ldlKx1/Fsl9T6OvInn4jOR5IZGTI/kLspVOeDdduYzka9WlZS49w+npStQGPYyQ/PuzleBm0pyvdGXXgWd6X/I1oWmvTgaeKg00QvLvRVpVXHWp96W1th03f+vVZFB/Q1plZi+5kooj+UuzlWE6Py3Kaq2lrJNBaX77avlVOUPnM9x0JrnkGOsRF3iyAslfkK30/GHOV6SuLk8xttlJqWtQQgzpSnLN81KXGL1MZzn5pCnGGEKMLFNE8ldkK2Nu7ZuyJVNvkldD67LEC0NFc5hPWX4r7CN5PyNmUnIk/3bLh2qHqC5/Oa+qotqPbw+cXEXVu7V0cnxRzygXUSxC8m9Gt5JLE7K87ELOB6ZryZcz9HDV9fJCARHJbxbgPzwwPeMMQHIAJAdAcgAkByRHckByACQHQHIAJAdAcgAkB0ByQHIkByQHQHIAJAdA8n/F8wgDGJfc03gWrEueevuenNgKBSxK7kNqTx0HulWBSclT6BugpE9ILs7tD7C1BJLfG7cG8k9F8hzyVbYDSH4jseU0kH/K13+WnMCP5M9H09g4dgjkn4zk6Z8k18De+0j+ZMSH0eUxkFdffQopu3Y7LHeAS9VsySmlkFJOKbcTUggppaFrhOQUUuq195xkcuWQ77dYoIiD5E/NVFIIeU1XNoG8RPIiaLdQQ1gkD2E5YWGR3IUUUqi4aZC4nKHtmi7PR5rlvvwTmH9C8mdlKsU3P2xDuAnkU9Vb1aUwb+J8kFxVc0ja9zqUenIedjaU1C7RelKUsK6qKSRZrlGtJ5gj+VOoMXTcTdZtZZsdV3VhDruuSe6vJdet5O1t12J7u6Zv11rujM2vEEDyLxtwVuFkUyqR7RiydmDWJQ4fInnJuHcDT9kOPIvy03CJekDma/X7qd4rzDwh+deTtpnKGKl31ZVm8iGSf1hdWVXOPY33u3fWYE7KguRfLnne7Sq+C+Srr4uhJ5H8A8l7ljK19KS9LVunpViO5Ej+xRyGe7qPpT2D8PPI8/+P5Gvm3T4bLiRn8InkT0Dmced1IF99XST/T5FcPxPJ538KdUQk/2rJda4gXgbyNZL/55x8k65MV5G8DYGxCMmfYLkb5hsPgXz19bq68oHksr9PziJ5udUyPYOQ/Gma9/nGYyCfQsgtxvsx1kt6V/K8LeE0p/N5JJ/nXAnjSP401vnGYyCfwhx2NYWkg/XF8bBLSESH8Wx5vQRm1z+yXGIfyV04VDIByZ+Us5yUqVNIIeXy7rK+qiYWOaQhJy/Gl3PSkGCnlNMSuGvVJKcU0rJA5hDJc6aDJ5I/P5jX+caUDtE0BOfr4qq25rueGLLqIPl8LPVfA/WeWQe07cd2iX0kFzp4Ivk35Syn843zqpOhnbK0H4fYW09xxwNDv2X3XkdmQXEk/56cJYdjIJ/mVstjNtF+HBMM2fdT3jZY/rgjMyD5t8TydxaOyDs/TefBWKYPPwNI/t2hPLHSFYxLPlHgAPORXJAcrEdyACQHQHJAcgAkB0ByACQHQHIAJAdAckByJAckB0ByACT/ZzzrDcG45LpsqH+BeDZQhp8u+aFb2zSlYafNzDbh8NMl19PtVTySgx3Jz57KHzd20+x57Bh+tOSnT+WPkgs7RcAPlFzd+4F8u0Xnu3v90D0Zye8o+aZzlZxur5KOY9Gr3wN0T0by+0m+7QSbt40El87IXfLaWjl149e2yksrZronI/n9JK9WrrM/u0DuQm2NnLrkcy/lPNwS7VZZXtE9GclvJrn4XQsHvwnkbu233HagnZvPDifoNqGhezKS30tyt29GKyn4TWfa3iw5n0ouae00sXhN92Qkv5Hkc9OrTUFwG8g1rM2SF8llkmmUvL32Q02G7slIfhvJc90sf4y4u0C+tpbYVFfGYozrbQnHGiPdk5H8NpInt53X2QbyoY/speRLvqK7buR0T0bye+DDrqi9C+SDzZeSLz/43QwS3ZOR/CalFbcrau8Ceeuy/K7k84gzbTNwuicj+V0k111RexfIPyV5zVd0O16lezKS36eEONdBkjsP5J8ZeM6zQH6c/qF7MpLfazJoLGrvA/laBXebguBW8pKvDINMuicj+e2m9UXVz0XtQyCvw0ffxL2SXHJI6yfpnozkN1yg1fstp+OSE116Ka/dk1Mh1D/HIs2wwIvuyUh+x6W28wD0ZCZ+7qWcsrbHPiV0xqn9NVuhezKS3/WhiToAzWe9aGuvZBn7x+rcb1nPvaZ7MpLf9PE3UX++pGrpnCyr5J3xHP7nwu0lr0XCixhMaAYbkktmbSxYj+SMF8G85PRbBvOSAyA5AJIDIDkgOQCSAyA5AJIDIDkAkgMgOSA5kgOSfynsYQXWJfcx8a2Dbck1xMAqcTAtubgQA987mM7J1UUyFrAt+SQ+Rjo+gGnJJ00x8s2DaclFCeVgXPJJGHuCdcmnHOOm/Sw1RTAnucaYx7gemQYFa5JPo+Q5RrIXsCd5GErlSA5GJV+11kCxBYxLLurY8xBsS85e4mB04MnyFTAveea7B9OSO4aaYF3yFOMw1HQJ48Gc5DEmGcM6yQtYk9xv5vETk0FgTnLdBHJmPMGg5CmGsTCuIUYKimBK8hTjZm2tRFYhgi3Jc4x+M8PpYmSTCrAk+cHx/RMUAD8+kof9cix2GwJjksthNRZVcrAWyQ8rDmkuDtYkn5Acfp3kAEgOgOQASA5IjuSA5ABIDoDkAEgOgOQASA7wHZKL9+z4BsYljzEGnoAA05KnFGMkmIPlnFzVxcgzEGBZchEN7C8BpiWftp1SAIxKTroCxiUnJ4dfIDk1RLAtuVBCBOuS62Z/fQCbkpOugPl0hYl9MD7w9IEFLGBccs3FclpdgWHJQ4wpewafYHrgmZXtDcG45E5QHIxLzmQQGM/JqZPDL5CcygoYl5yltvALJOehCTAueUJyIF0B+MmSq0sMPMG05BJjjImpILAseQjJMaUPttMVlq2AeclZtgLWJQdAcgAkB0ByACQHQHJAcgAkB0ByACQHQHIAJAd4juTOs9sEGJc8xRh5tg1MS+5TwHKwLbmophj50sCy5KIuRh6LAMOSl7EnksMvkJwvDWxLnmPgSwMkB/jRkrPTISA5wA+XXBLpCtjPyWOmhgimJdcUYyRlAcuSiy+Wk7KAYcldjCGz4hYsS55iUFXliwPLkid2rgXzkvOlgfl0hS8NbEvO2hUwL7lnqS1Yl5z15GBecuXJICCSA/xkyUUzU/pgW/K6OIspfbAseQ4pM6UPxtMVlq2AeclZtgLGJQdAcgAkB0ByACQHQHIAJAckB0ByACQHQHIAJAdAcgAkB0ByQHIAJAdAcgAkB0ByACQHQHIAJAckB0ByACQHQHIAJAdAcgAkByRHckByACQHQHIAJAdAcgAkB0ByQHK+CkByACQHQHIAJAdAcgAkB0By+K2SeywH24776S+Sg23J/05vf7AcLDv+5216q6EczcGo4n/+PiR/838AzOLfiuRYDqYdr5K3jAXAGn/fmuQPzYnmYC+K/53t/h/pZeG7180YxgAAAABJRU5ErkJggg==;" vertex="1" parent="UCzq-UxkKGO-OqH3Rzav-1">
          <mxGeometry x="610" y="300" width="280" height="385.94" as="geometry" />
        </mxCell>
      </root>
    </mxGraphModel>
  </diagram>
  <diagram id="gvGKv5F2IacegxoIDWN1" name="12 - reminder">
    <mxGraphModel dx="858" dy="422" grid="1" gridSize="10" guides="1" tooltips="1" connect="1" arrows="1" fold="1" page="1" pageScale="1" pageWidth="1920" pageHeight="1200" math="0" shadow="0">
      <root>
        <mxCell id="-WW_ng4q_ALl978gMjCg-0" />
        <mxCell id="-WW_ng4q_ALl978gMjCg-1" parent="-WW_ng4q_ALl978gMjCg-0" />
        <mxCell id="774v0yPhuzYLgcd6VvdD-0" value="" style="shape=image;verticalLabelPosition=bottom;labelBackgroundColor=#ffffff;verticalAlign=top;aspect=fixed;imageAspect=0;image=data:image/png,iVBORw0KGgoAAAANSUhEUgAAAuQAAAP8CAMAAAA5iFsVAAAAOVBMVEX99uPf3s7NUBzG1cmMm5z28N1nfYX////u6dYsopmkrqy7wLlSsaabzb9zvbHmrpLYcF5me81sop0Spkt+AABOFklEQVR42uydiZbquA5FY4x4IpPT//+zz4PkOM4EVMO9RZ+zatUCk8GRdxRZdpLmn6jB/g+Cvkx2SHQ3EXHYA/pODQo5vDj0vd48QQ7Goe/25Y3GKg0EfZmU8uYfIA59N+b/NAMYh76b8qGxgBz6bshtA8ahb6cckEOAHIIAOQQBcggC5BAEyCEIkEMQIIcAOQQBcggC5BAEyCEIkEMQIIcgQA5BgBwC5BAEyCEIkEMQIIcgQA5BgByCADkEAXIIkEMQIIcgQA5BgByCADkEAXIIAuQQBMghQA5BgByCADkEAXIIAuQQBMghCJBDgByQQ4AcggA5BAFyCALkEATIIQiQQ/8VsbEEyKFvRvx6u90YkENfzLhHvG0/6cnNFOVg+ydb6jIZWOEl2dvN8NOO/CeQu0vU9AYM7DAMhr4W8suDjoFNEH/AEMYb3PJfb7rudmWiT0Iem+ANkPN4T7I/aDT7fjLIuFchf9CT26uo+wl/xGe7s2Lw8Y9izsaeLdLerq9s+QeQE3tN/zrkweL9OIz9Dyg39/v7IwJ3ubzZk3vIW6+A+Q8Ox2/luB3HbPD+T0I+3scHPPmHIffmoeZf9+TsTW2ZmXkYmm+F/MHKdddrtITxlPPbIB+DCw+yo/nLIfcx+cch91p7cvrpofbMTPEyQW+HnP4M5O6xGng8kyU85d3rgewx5N5WQzB4tPhfDrn5CORmmrzvdrQDuZtiV7T43UjJfsEqWBk4XyeShng91QYYevHwo3wYe0qLDLpAH668QZl0M/b3ftTwx/ifxlDoI6O9ywW7qaim0SwSy4cpGOIS00vLo5+09s4vGA92onKByRWePK2xa4yMJ/u4RQ3ko5e2001yF4OZtjylwxLXVo61i9FOCHranZ14w4g3yQYP1rqP2ZzGes9jG9uH/2EH3tI2GLSwXd1GNi0x5mOnoZ+bqGFv/1Qi9YxtFhvtiHR+IUn+NOSSUClc0SJcIf35QvUKF94p2HDk1YH1y35oPuF7AdT/EiycgR3uWVz1rIbiqxTuQG6klkroJBWe5NimfByX2jhO13BV/knWmYpFLocZKu/JZfcKObXSFeV8GiTl7kteIi2Sv+25c77fB9rph5LYOxkq/OuTgUebDK4Mr9toGNISffYr5TbD5SOs0+sqNLfZoTu/3cy7IQ+OyHDwcbzjyZ1hNi63Wki+MDO7aa9g7VdGqkvuljkYifcgjxfcsARJ1se3gQ25n7nVRsM8aCMQs49n/Fp2vG9DTnKkeiTE6ZMvcLoT/zlm+NRz+5+YjZ4NkWAXu+biuF3cZlhtLggL+BJ34slJwxXPbDBGm118Zzh955lxX2asnBVsjN9KUc+NS6ddlYi1xhyyB+MOLFHgEBMxHC6Ew14bxSYJeTKxeOppWWXY3HNBOg2MMd6/HdQzbeb9kLMQWkbLS8jl10ndm29GXqyxKqi1OpNttB8HLEc9DVaQxyWsBOIUP9oixOylZzWIRSPkfVhkD3Ktp1NkwycX2Wc9Ul1mjrS5zDdNUmDEcZNaz6knn7I5+cSTd5Je8bG5kZ6onTNcxfewii0NzMzafd3exzBf74r4JVkr/pI6ScmEfWR20J5qL/bcaKPIeDgr9OqatqltFOCOR+JPA7XnmLZ60EkJg/r0ZsiDT6IYu81mWV5qU1RHisb8QUy8Kti6eG6HjGrzLU8+xCXM7JOWHc9g2VjvYol7WmvcTlNSADSF4Oplw5kbq69WpkXHM/8UPpAiTLItOW+kFurJJwmGaK9hE54mBNkpCm+vbTJGpzF62kD29CGuSXudDXycXVHKFr0itdaY7E0xACE1eWiJuMQgZt5qo7SENCdJT4tYGi20RFximHd/0vE0YdrK7aWs8jOQl32o/eyK+MEcpjqqgnpHx139lWunxXV1C3I9QQrI7cJZSc+qz1uXgN1sD/NlDovjMzGaLsZhl9kVJTZnCHOB+IEcx+TsSoxfTpJ/y9GgzHINbqvRiZ4OD2dXxjo5nl07JUc9CupDU0C+bJKtNqKyjWanI62nHn3e1jnkgfGW3ww5bQ1iVJDzNJXdSnJVtmVVUO+jhnwuUHD7xyA3i3a0SSXksRl2ro4hokiajy9W3fFeCjEcVZKYKa+Zv1+WeXLi40RTxDMmRzqNPfxHa6z/6zSQIZsGiwRyszFs9KQnn7Eb9yFfuKTzNhpC/ydKzqncQPZhyMl27e3tg0GbI3XLcEXTauoIiVPGMHvvVcEa8nHHtWsks+vJaQ/y/r7uu+eVjrNIZfaEL0sD1JDPWkI+qSefKjsSu2mZq9rIkzOHRAkpwrM4l8RB0VbXMM/lyQtXWrv2xP8B5NIk521UJLzS1u3zkDfMbN+eQuRTT659rRyuxI5RSgY3OwXr7MpOkK6fXvLkg8pWkG+farMn9yrP4MsDntw5s+3Jp3rEMxvDHcXkNvcqw5hQFkn+PPbf2gPIjz25rcfNZtf+KOTnbRQ8edaLnjz2Bd+fXdkis4ScEuNEroBB0y1mt6A2MVUx+dA8FpPTfkzeM1d5jEPIYyexXiOULSywisl5kThae/LLylnE5IiZ9oZOE56cE4QUI5eiWl3MthBRO4cr9jlPvurqz13B/ixcmWPykzYKZ9Ki4q948pRCfLMnp61OZtnsOYlslkM9lNNoewUHPc/sFOau/LOePGYDVBlye3LRqtaIKUJXVruG/LJcYyMm58qTi3tye2e84GnyeGfoVpY7CdmWVcfz3JNzNw+RUuVWaHbtvWZX9iBfNcleGwWns6i4NhA9Bzm/P4XoNsgswS/TBmYR8WamVwWrM2mc+TSLzn6fR+BycnbXky/7r7wxjHbsyWntXIOnjnlELt39IiHjti0jH0xhnaUx3N7wr+TJySq6XTVRSweFKJ8G7Xoq17ozGpJxVLiVMTuf0lriljch1ybpaaeNKkdU53C2Pfn9jMAPzF1hGZAmNxWDQbGBSIc7cp5Qh7Z1RbNdsHX5jClZMimHHYZt0piEICzewt7v+55czS+n2iCL2N4+CLmRUR/W3EfKclMZsMggqOxEjdO4iTc9uR5zHvHUO4RMMQ1iO9DIAQtLh5O6thwkotzxjD1Rk5x1JldOEV4k47LDD9aJk3zCWBnN1jJC7CbkvYx8Zssv22h1tbUyWZ1lRsxWTC4nFR0EJPb9U23JyNSLwmmZmE9J7RmTbHEGl6DPl5RtydmUVcHWTsY4U0fnlVCaX37PE7fiiPDozTjue/J4CoxjLwXxNoyxz8kVKzO49iMW1kMR/oxkD6m4muXDlXpNuorb9OSNk2N38+hQNsbxiCcZmXpCkk3RCeYB+jbM0erU11PMrbfF9JaGOlmH54t+OarCaVZK/MdirT7OLjfNHuTSJDIja9VGK08ezpy00cT0lienPi1yMKn9E/PJOWV2y9RuSnxLM3L64kLInaB2uoIOftcFWzsZksFHI7NE0lcdtiEbJ/4MPB54craykjgz2eSQxyxObj3Kqc7klmnKw/nFNcjIsYsrl6OfXLPpyT2hyT/kmJx1xtbefI157opCHKepzNMOycgkRO40Fs9LcBGCVyUh30zlsY5iHi6tNTLvQm5kCe2wVG208uTaIHpabMXkyb3dV5OXyvDsEzdNxOlEZjHBgEKJtBKFn2U2Rc6kxJ+zNeqCTcCYrc17SV+LfcqvpCXFxqnYhrHWMJWbzKkSOpw+kxdJh6pfaflBD3e+sbYyzqpaMWFYVDzWwlXmrCsxb3veiS13YozhsE1TJG3LJdQY5Q3AvLxxdF6Fl/uQX+dRM9aheFmCmsq+2d51k8yNqj/Uh5gmHdnDG5U/c2cQreYTUYlL/lIcQyyhagOHd6NSNWupIlJ3QgeQ5/1sfn0A8mqvc22qVinrSdUqq2rJz2U9Dm9VoHKvtLlP/Ua1ffig1ajaJ21aawEsLSFvavstN7DVJHULrM253O9Ox7M1n7hbn45L6HwFeuCGHHrm6yubeO1Qf7oTemEXJxuh59vohweSUogvHMoDSxwvQt0NDxeCPqHhPNf3JhGb7oXbXQE59Hsgb167ERWQQ09D3o9/bN9EBMihj7jT31VhQA49DzkBcggC5BAEyCEIkEMQIIcgQA4BcggC5BAEyCEIkEMQIP+h2NpfVmOyloEkIH9YNjx34bdB7qt8xTs+AfmDCo9daLvfBnnb3l57RhT0X4S8vV2Zfx0uzKZ4IgoEyA91vXWvvLv33a7aOHf4uhDi660Flb8NcrZnQeZb3p58fb9DJPNsx9bFt8VNdFxxQP7rID9+HlvzrhfLfoCVp2919Iw756Zjyq8IV34f5P2fgfzFZy29E3IzTY6ZzTQdvXUcMfl3eHL6AOTd3we5myYmIt59vaNAjhziXw45xwdFjvLMQTO/G1lIpyE+di8/avP87ckv6uz5p5ReITw/PDG9MDg/Rlifoij1Wr1BeJwrvsiOHOxxklclmWna53j9mHlGSvHvgtzm56Pa/HXxbE1bvbvn/O3JL0N+OBKkLwjObwj+P3vnot6orkPhuEYc1Q6kff+XPdj4fiO0aZrZXeubvacQwEz6W0iysdy272rlIqJlBeGkDtE1fXwMulZgm0b+SrXMvJ5//pkEyM/5JqtgZrnuyJIQpnKEEEL439wiBbMIC1kfV09uJGOC+KuQ20XQBYslrvqc1QduQZ4fwUKYxV3zCsJmDTMx8FZ8CfOBv1JVxRleE3o+5KEyb7IGq6vNWyy16df2Pa6eXHvbn0F9l0ZM80FdP5He6OK2ZW9h/1YFYbu4azbidAS5Wema3U99dyUf2AfkLwi5/U0lqxwVfoer2ZyU1ziunlw0ooI6v3w9HcwBEb6Is1tBhNy62RQKaTcseVVBuA489TyryxDyzYjzEPJ9zk1y88NrQs+HnGKtgVF2xQKSQn5QPblohPMqa63MiikXwsPOKAroZQ5uw5JXFYRryJkH6wobtDd3fPPHh5Cz7aLyvmtCvwC5TAoWdCCX614q5b1tyVvVk0vIiWn/0+NEGlDUMPlHrSdQLPHUsORV+Y8achotrm3Rto75EHJz51rSfdeEfiHw9IU51p67YlMU1zWtDHNcPblEqSxX2LL1ahR4lnXGQvWyqjJlZcmHkA9l0WbBdLmNA0/N4PqVISdmljadTE3I6fp+lUVYeVw9+XzgSSTPQB7dl+9Z8tE38z9rxO1amQcpREFA/JUhdx7zkpCdQe4yKUQDn7yunvyF7Mo4hRgtd8NdoR+y5HEM6AByuOCvDvnO+TW6GhnktjbyxVa861jyVvXks4HnHnxOx1mgQFa4ybWfXamqlTUgp4MRz4L2lsqEIWkN6l/LXQlZljU62WuGsCgdhuPqyQ+HnMpikZ7tQLu/62VgyWU16WaY7iM/GnQbTkNMMysuEJ2B6QtBvthayrECssPZVkD1NUpXtzPmNw6rJ39FapRdIV8gWKyxYPAOf6if/e6KE/d9ct8fRQLoaODGTT+8jWchFlNtKS8sC/025GRrKa9rll4JBZT9EfaAJTHY4+rJX9R4PrktQmxTmXuEbLdto5KyexpZcluve70m/v0YcmPKP+x/fOLGAfmLWXLaS/maTHmsKulqI7ua6qur3Js45ePqyV+GXA9dHlcgeOFs++oHXlwpbsnXvk9O+0Hvq0jcldFkAjOV3DJOJx5BZmQL2ZZXgpxdIeS8jGlSG5l85V5fs/lyVD35Ryx5VSC4Likc7tNXxA0fXPIbLyodH3094iAJXvZONc8KkL9U4NmKCJs1mxuFjdvVk78oPc96SFyzzDNXNx1LhNeQt06i46+HRrZeNQJPzM96uRQiHeyiO076vulik5WYz93pA8o+f+94G2UWdnueJxjyl4P8NUQs1fSvvW1A06REbukFwk5APnYN/rWbrr0ZDUMOyAeU0783B6ReDwmTEAH5f16E95gBOQQBcggC5BAghyBADkGAHIIAOQQBcggC5BAEyCFADsghQA5BgByCADkEAXIIAuQQBMghCJBDgByCADkEAXIIAuQQBMghCJBDECCHIEAOAXIIAuQQBMghCJBDECCHIEAOQYAcggA5BMghCJBDECCHIEAOQYAcggA5BAFyCALkECCHIEAOQYAcggA5BAFyCALkEATIIUAOyCFADkGAHIIAOQQB8v+uSCQb4ocaYSnxTQPy3xJPcyRbzfon2pDTPM/4qgF5Aw3NT2F8Sgz5PKvHt7FddVYaKP9pyIWykqX5mwbASfUQGmmep6QrkfwJytXWBjNQfhnIhRXTE1xhqaWw7YjJqrB1Ygi5nh4C4zRP6b+VeKP84d7zNGsmAsovA/nkpAYhGLEogT0dsGnXjqbLhU2/qiAnrcXw/Af8a/U8i5w+VvPMj4ccHL8S5Grje1NtWHNHojzppFll04DSph1tOs0mVUHOo+fJQyAX81z5/bmTfs8j6Q7IFTh+LUuuDHJiw0/8HOQb4tI0w1KR5YQuda8aPuEfArnKHHIHuTxnyulT3dEMOH4xyMla1oEp19+FXE6TYCbbEIVrnHqmPwJymmdVdySeT3kX+vPz6HANyJ8MuTYOSXhIayUuQjvf2EHuHYr9B+W8c1KK9zOsq2Hk9/sdOrrTthHqNELmcUGFtc47lVaxBQ+ftk4UF4GnVuqrIzhynhunkjqV0yb1+SmP2gHkz4SclAv4hLef0oWAqjDKfs80Seer7uf4C0zOlFLcVjEvsovbjciWK5RbctcKZcmWNAnjLbn29/c1b4Xa7J/wV4g3ysVRZwLHT4RcWWfYeNwcYNI27HPceRCFh6eEnIUxyjbP6OgTQk2KhfCpYIO9YJa+G1SN6Kl2hQtLzkKIzCOR+0W3nSKFXEfbXqEV1Q0Ip0442oNWyFp6c1jGlAPyp0IufMDnWVY7fpwwrYiIZfAtPHwBcmYDKYfhDUuvjVYpuMsiu2bZiGr507klt0FpasldQMwsKIHcMk6dgDDqXNZj4JTrz5549KXDXXkm5MaCk/VvHUDKecfkWY55cqamJT/MrpAzrhTd+qKR5ihPHeimzUjTO60PzwnkA8ZNMOHVQ7Y3utmHXKq2NsqpFyDP8zwJcPw8yIN9lsHDVrnBji63vDQt+WF2hcOp/riykSbkqgU5JckUrrIrQ8YvHHUactV1wNsSn5+KOpmVuZGMh34O8mCvL9FzUDnLPk+u446TljyGlZ7MspEvWPJpKiDSkxozfmFicn/OQU59S07xmtmffvDJ0thyDAY9D/JoZD3uPcit4y2+ZMllMLrJ4yJr5A6fvLTkVb8wWZWK/ALIoHOBJw+mr1Bb/WQ5MbNC4PlcyHWOewvy/Zfpbf03LLnsWPLmQM6hJa8gJz2ae3BX4Hk2u9IPPFX3mUKE7MqzffLgrjSNbNwRo8STllyk7gq1GrkjT15a8sr4m2ubnGQ/SX4MuZ5nau/ms5Cr0TwbQP5kyNXYyMYjvmzJ4+NCxcAza4RaTvnYkjcDT+LRDJsYFvb4E22/ZJDxo07U+Tmcm4xh/adCHljx7mwf8uiTq2w7s9Ut004qjoXqNuQyWmBudpTKklczcW2TQ8qPsyvUxHnokjcYl0eMA/LnQs4O7kBsB3IyY6K+G0zujICTt9Wc4CgtAn5LO9i53Yhh086EYT3pvP9R25IH/1soP+JprmnGl76RhG46JicnlLMZ7xyfoJBdeSbkxoZOKpno1PDJw3BQQNaekVhyQ5zdx4nxtvO08o8nSe1GiO1cFlVOeFEqTqGZsgkwttftF1Xpw8PExxN/vc/XNtbMMT/zFo8+ZBzzyZ8L+cVOW5nc8GHbkrtpUH7Ek7QbAE1M5s6o7wYBWjfSZCcF7Od0GrkwS7UfIyntf1M8Moc8NFEONPF3KCdRpcRpntWpy5GWR8fjzaDnQk7MLASzdyKrH8znmSdL/oQkgDP7pEh8Xc52mEbkqBF3H+kx5sNth+DKoabioh76eOQ3+rwuHHAqXvq86xs9DPdhyZ8KuceHLn3Ii4wEue16H/euWnzcgDw0VLfTixqpZD7ufhjlhnFx8pXj41eUtza0wMj+EyG/57dyzwk0PuieNuhwx3fv/A47rOdscaHpB2hkM0kLqfKnQg5llMssx/8T66OQjUDwXQPy36M897p+qA0sLgTIf5NyOullfakNLC4EyCFADsghQA5BgByCADkEAXIIAuQQBMghCJBDgByCADkEAXIIAuR/QOWr+CwkJk8B8v+UiqLL9oUGTIMF5LVut390MWL7DmfKuCmWrGDJ/zjkHx+3ah+/vb39m99m+Q6nKRuE9xn+PORvb78DuViWRYoH21g9z4LzHROKJf9FyPnGB5Bfbg3z/k0/QmQBoVjfdy3xtuSRi3QYQdbFaVFi849CnmPdhPzxrywu7+/p9Te8r+uyXre/PLgp8G2E398PukG9cBCWKQTkPcgf/4TPId/s+F7Aa4lkX78NuXHAqdoFxAB5E/LHK4d8s9rMe2VovjzMkk913U4ByP8e5OLj42OLKrf/e6/bQH4z+27BH7dKeGLz8dvHrW/epXU81kgpLWaH316vV7Np5L0V95Er9ibiAYuPS6/WpfG3scQjRHTsr9sRwddvlS5kJMn/HuS3t6AI+Ue245ZtZefc+mb63TD5fvUFbq97WLmS80S8rt5qr3knCQe8y3jJNDJd4hFcnLRE14QbbjrKD/45d0UIscEqhBDkId+2mcVGulstUezHJA7Nh2Dm7YhebeSNWWYW0hnqC200S2bpWWYhNkiTKs+rOSPLvYjNGVmS2xKLZGZ59S4KC7FdTpojklaF8ep9v2hVTyFA/vcgJ2a2UIeVNTfGBTPzZq9FOCSFXLgD+nVLNs7y1TuXzaQzM0uHqI0w39Mqz8a2rzJbHtT66dkit+ZGvKEmezWZOPFX27PMlV3XahRhM4P6yJIj8DTI086y301mNOiWeCs3B2LfW2EHojfky16zOWZMihQi7+7HKrNgNOuOvjes7cDTdCBbBlp4U16uuC/sOpwSiAHygHC6O90g68+MLiiNd0KtNMgaEM0hvzALG1l6r72bXckhl1nPclUEfE+qIDeMK8SdgPwY8j3w/BhwTtYsrwtF/hZptXpXooR8d4rMeWsPcjtUlB6QW/Lt0nsb0kNejm6S1GqeMRgEyMMWdSG3QanhvFtljeU+Su8wTzIhXcgd5mu0zjnk0iYQ1/+zdy7ajeJaFEQjxD0DGCf//7MXhCT04OXE3RNI1Zo13dAYEygrByFrD5uS99GbDOs1uYhouhCR/ExLbsNUbD+j2bmdtZ4PoSUPbEpuX6cWiRPJx/W9vd3td1ry8B56o3fFGKF3BcnPtOSuq+O592xURER8szzdE+ZpKauS24K6X5P8Me/CmJ2avM8iWfSK0IaWHMlPteRzmziu+1ha2jYb7jdt4fv7JhuNZ1/yaqMl7/1zpc2WfOrSyd6kKQOqhC7E3yn5RyTrmZbchF6Wj6iBjO7ozGLhw5cSKz0wi6FmiJ5aPsp+FPu0yLf0Ya1JPgaSPzVd7Shn7Mqvldw+unSPXQ5b8uc/dtCKicuVbuqdC9IOvS0jpnJFeXWtxrKMZvFOKqfw3JH+WEYCTCuXw3LPMU3/b/R56edxuSp06di9614vRueDVzS9K79TcplHaLl2uWjJs+Etxg3oSrpXdBN9PVjNQ6n6pXvF9inOa0Iq4sOtEeul7Xix/9fR7wG7hf0siB3fNX0YouZ76nEZxi1mqcXe6fZRJ6MpE8UZT/5bJXddgs/1lvwjG8NlwgCuKHi2jutfmZ/rTONV/Brt+rijlE73jFPNC64H8LF8W8049R/zMc4LalR5+W3gttB+j+4F8WHVeQWD5L9S8kpEPZ8qpNeG/NioKyUaqyIiop42tTnu+1NJXrNorZVInGZrV8QvEaW1W2H3mW1QuVVmWbBB0UrSXagkw1knebcqv/ekJf+tkhsjRqSU3KxKHlaYtMswWvRhyibrU0xeYrKw83LI10pmcxhxnrzP+qJt6zPLJ+sJS/6NklevR/2Z4zTll9eYg52YE29jilIsvfk0XcPkQr9V8rtiRNXprw/V1TWSI/mtWCuBOCtIfq+2vBi/YpAcyQGQHADJAZAckBzJAckBkBwAyQGQHADJAZAcAMkByQGQHADJ7456PjkJSH4b1oKibWAApwbJ78LqxIsfSL6DKIXkf7ey0K9+V/o4KNqobwdFHx5Wlhz9t/zU3/dzSu1D8r/q+GF68kHb/WeCoo8Pa2ti0j/LYYbp8cfE5lIi+fUl/3ZS9E+VvP+m5MaFryL5DSQvr+6vacnV3hxJo+NPeSL5K9i4nihfeZp5sw/zGj58avLg/vLotc1k7l3K1Vp68lTt7lzB46BoNbdVz6T5sq/ZvvhpUHR5WHnsc54c7fexbLH9LsuMjDoJipbezdvrU071eNbsNI7uhJZp1Ku0n91esaIEyV/63Tf4vB+XE9unYckh0q0P05E/HnMkc+9bwzw92U7Ytj3Jz4mgaJWHQsurQdHlYeWxz0Vy9LKJ3mv7s9OT7FNF81m77Qftjsu49f8evklVfe5JbkRMheQvFYjTZLPq0fdhWYudZla2JJ+DZn2cSpmeXE0BhOXs4fEv46OgaDMHRS/X8WMO0VXPrW7FPCi6PKyV2Oc0OdrGH835XVsf0Cm6S4vSg9viMZ+9wVseJH8EyUOU9MP/YGka9esteSVzzYLkJ/HBx34qzbDsJwLvc8l7F6bskybK9OTKxkBsS34yKDqLF3261OaTQdHlYeWxz2VytPvJpC9iLaqwxRAfRniFT9vQZUvuXuH3WaRRv96S+8IcyU/fBPX2bPt85d4tiw9eXmnJh/kVy/1TeYe3W66s3njmQdHpNj7dxZi9NPQq+kFWDquMfU5vPB/+XOglTqBoyOdgaBMacrtsP09bLfm8zyh05sSNZ3sgufkfkp/vcA15EeECuPtJf9mGsiV3W/Sx5FmBKaJ2W6ozeV1J3NHHTrKoP94+e/aj1uveTcnDTyZb3TJ9lCk9n5w+vOKx1ZIbv+kpyaUd+RyZ/mxpyd9UrSQtRHwLpVfLlcL61b66oyc5ZySPF+Y70ed2v0ceFL12WEXscyG5i33euCs0uZ59lGY3bLXk1WuSf8Yg+Tu6DzMPQsEa2qbha5IfcSJetIpvPI3M/S8farPQT4Oiy8NaiX1OJY9Sn9c1VPn6ZVcuoXStJX9NcmM/ZWNDbv9E8ve05CovX9K/rdx4/jnJt1tyE4Ki1c7tbBQUXRzWWuxzLvkQYp/Viy15/66WfA7dGGty2Z2Gmpr86+XKcgE2a/L1lly/RXKzWZMvQdEf+3oMy7Hkoc5l7HNRrmTZMuVt+pBJniVMf78lr4ypjPn87Mx+3geSn8aUl21IC5mvtuTy3pbcez625ctbdK3KBRG11emzFvucSj7dRmbR0lkadZ/l8g7+tjKKp/5uS36qdwXJX5E8f/Dhe+JCR0LUA7zZkhe/xitVN/Vu78qJoOi0Jl96WcK66YmTyTeIJE8Pay32Oa3W1u430zTqR7ZFeIU/bb7Im3J3NyXf7IZfoJ/8nSj3PF+GwZfitsEbosun3F3bZkuepid7/7p9yQ+DouOWXLkOxLhcUU38JkVQdH5Ya7HPSXK0/cTbnegQHJ2lUU9jHh62K2fuOjRDODvz/a77zTi9ybbkSRr1Ot2nRvL3NeW2z8HGJatleX507z8Fc3TysN2SZ+nJZyQ/HxT9EZbtsK5/gn8y+Rfq7yIoOj+stdjnJDm6MqoP+wi7SPLk5ojdPmyxvMIPaLN3vvObbEqepFFv3V7sfALm0eQ/d7jtz5PcDrzw4cnVko7s85bddX3InuRperJzY7cqPwiKziU3bvN/PqLH+m0T1URlUHR2WGuxz0lydBT7vDSjaRp1ZW9soy3ccv8QH0g6zPtTO5InadRblwXJ32q5iNIqCZad05HDdZ3jlzfzbqsiPdn2Wu8/8TwIiq6yDN25B/GZhTqr6B3LoOj8sLZjn+N3VckPn6VRl1v4s7dE6vo3CUNoqvQvVZZG/QWWkyNIfl5zEclOoUn/2YTGZU3yIi7ZHJ7/F4Oiq1mcIvW5+DHMSi70cezz1s+Rp1GXZ8tkLzDun/ckL170pQuG5C+etv1l85V9vP8Vx1+H+xOxzz/lbF0HpqSA24PkgOQASA6A5ABIDoDkAEgOgOSA5EgOSA6A5ABIDoDkAEgOcA3JRRezwJKoBveSXDdN0yaat03HZYA7Sa7aOp43pLITObRcB7iR5EZEp9+bNxrL4V43nkZkmZxkXqHTFQAXl3wkd1ragzlRAK4nedahInVapgNcXHIp2u28TAe4uOSqaVa8px8RbiS5LiU3bbLO8HwIri15t1KAJ/XKYRwhwI+XvFkrYV6YSxzg5994trJXlLdIDheX3NiwhKxkibWmXIGrS16pqaluTCb58mj/MD0Z4KdLPg1E1GkHikkKlB86zTUg+Vl006hcY2H4CtxJ8q6pJZ++XhWP+gEu3ZLXK+LzXB/uVa4U69IRWrqlWYdLS67ynpW8JO8aihe4tuSmLE3SAeXTE0++KwRXlrwcT66apjNIDreSXOdNe/KcX1GuwM1aclM3tZhU8ponnnBdyUXX2bf1R8fTCYc6xmfBlSXXTdOk1Uo7Op7eiNZ0msOVJVd126VOS52PVMnn2AK4lORGRhKFi9FYPOKHq0ueD1upilZbGGgLl77xPNXYc13g3pIDIDkAkgMgOSA5AJIDIDkAkgMgOQCSAyA5wJ+Q3GjNuBO4ueTTdLWMk4VbS95OE9bSmMOda3IRxRc04d6SGyM1c6bArSWvqqpukBxuLznlCtxccmpy+AWS04cI95a8nLOW7yXDzSSXfPbxmvoF7id5Uq6oMs4Q4PLlSvJgXybJOc9wqxtPXTdN5LlpKVfgbpJLVycT14rizhNuJvmoeNvppQo3TG0I97vx7ASv4eaSK4PicHPJKcHh5jV5/lhfuo6GHe4muc6Wk0hxgOtLng211TzxhBtK3mY1OpLDzSRvU8mnJ56UK3DrcoVRiHAzyUW1Kzee9CnCfSQ3TdNkSbOqaTpKcriR5HXdqvSRfkdDDjcrV4phKzUZ4nAzyYthK8JAW7iX5CsVDAMS4e6SAyA5AJIDIDkAkgOSIzkgOQCSAyA5AJIDIDkAkgMgOSA5AJIDIDkAkgMgOQCSAyA5AJIDkgMgOQCSAyA5AJIDIDkAkgMgOSA5AJIDIDkAkgMgOQCSAyA5AJIDkgMgOQCSAyA5AJIDIDkAkgOSIzkgOQCSAyA5AJIDIDkAkgMgOSA5kgOS/ziMihbUqZcorbjgSH4dpG4WY3XTHr+ia5ozmwGS/xzH63TJHDtet5oLjuT/YfVRt/LC1qOxEpcuifOrNE0rYrjgSP5fNs31CwXz6HQirKjDUqRplBgkR/KrSN41jUp9Nbpp9JHkXG0kv4zkqmm6vLaRtmkOJKcgR/LrSN4mBblryuXA4rrpuNpIfhXJTdO0ZuXOdf/es6b/EMnfsTPVtm03lQ51XftmVY8Lbeel7FpVqW7857Bm3kBHkks3rVGb+9Tr5XW3X3W3SI7kb5F8FLGe/1/PxYFp6xlXX7S17uYVXjm/GCRX7hXd1j7b9U5xaZpuv8bhaiP59zEidT3+16nWC1nXWmRcrL3k47+KSHC6m7YW27grL3UrIp1vt8t9btUlSA5/S/LR1kli7YxVIiLKK9vOjocVZlbaSq3cFmHF+j43q+vdqls33Hgi+Xt2Z2xLbSon5GSssWW2K0/8CuNqDz3qa5eVk1z5FUuRnu2zajYl32qr27ppVnpk/s/euWgpqgNR1CKUqwQB/v9rJ+8HEMRubdU5597VI0CC3W6OlUpIIED+I/nwm5S4LW+fyvuyhpxP2ZE+ROuB6biDU9u1rPMHkFvGFbo7AfmjnLx3RsyO3F6RUqQ0u+whP+WQx2A9QG6CeGXLxBukrPMnkJvrozMIkD/OyX1aJU+UpPzKEvKYZckgj+q26txreHb1toIgTw7IH+fkmWEaN46qOPka8liCtur8UXaFWZBdAeSPc3JVBi8SdDoUrpiYvCyyqNP2+myF17QfkKAzCJA/xckNyhy0CXmI1QvIyyIrJ6/Q3G2zD8ihpzp5ypVE1BaQx+ZlyJNzbG/W6qyNUtkc0ZIHOciTA/JnOLn4Bif33TbkoetThR5P7gP+cfTK0slNvLLOeasbA8bRGQTIHzVAyw5DibSxza/YvbQJuaW7M2CHM+xILFfPdp3LBzz9vhtGjvHkgPwxkCuf+0s42WErbRpUuILcn5BGIbL4Wvw4xXWdJ6a1LXe3ejTxZBAgf0y44rMiXOwhRXFfPJa9ICIRjjtYRCiV2KjzJP3Sl7vVA3FwcugpkPMGkFxkA9eQn3yJtIOLSrbqXFFuNm8MTWnNM3Po2QfkTxLfffzWY/UsxSMSBxg/UYvJhQD5R4lF5cC2dNOkRZdokWAB5B9FuVQ2dtsL+MAB+SdRXrREj5VATA7IIQiQQxAghyBADkGAHIIAOQQBcggC5BAghyBADkGAHIIAOQQB8ucIz78B8m9Xj2cmAPnXM45HmQH51zOOyZsB+XfH4+YxUEAOyN9ETNPj6zyfOzAOyN9GU9M8vE4z9xAYB+TfDLlZ/hCMA/KvhnxzilAIkD8H4HmeJ/NP0zQ+oSdmYw5huD6uD81GsUT5YlkFT3qTbKmqWd+aDRQC5I+TZdF4tZbjmhonT+jcRC18fW7m7SrmZpp8HfVmJ6YVAuR/BTnLpF1b00neyVmjSaL3ekKFSL8mIpIK5KsqDPWTiMzxy2EpQj8QIP9byE2YIdI04hkWEZHJb/uXabarTciLKmbHuFD4clhJAXJA/pcNT7KA8skRygZQC/ccCOWi4ckryJdVmANulecq5P3+ckIQIH947mQ2bE6T55WWDJfZlQ3IyyrMAYdwNSjXkOOTBuR/6uSTizo8r5NTBfKKk2dVpAN7To4MIiD/Uyf366b4rWU65ZCTZ1WkA3PNyRGTA/K/dnIpfHqKusPJc2O+7eSEtVQA+R87uZS+vlyA+YiTb0JedXLkyQH565z8JNp9FwswP8HJT9vL20KA/C+cnOf1QJWp6NSJCfTm506OoByQv9DJmXw6UOLolYgz5akUynrt73dyafF8JyD/uwFadoxJgtR2X9pBWQ1nEYrdJcHrzdYcWF5VccDJTz2anoD8LwdoGUVCWcjtm5M5k0sszm5wizs+mxEr21UccPKTdOj0BOR/Fa6UiZSTX4B5onwf+z2hhN1gTjvKKjYWwN0MWFpQDsj/QryCPEC7t4qzPRwg5x9BzgTKAflL3wXv73kEnELIIwLyb5dIizQiIP96yhGuAPKvpxwfNyCHIEAOQYAcggA5BAFyCALkEATIIQiQQ4AcggA5BAFyCALkEATIIQiQQ9C3Q84Kz95DXwh536Wp3vq2BeXQF0LedoAc+n8gl17hUTbouyFnPK8JfQPkQnXIT8x3lIQA+VtCzppprkO+q67FGuPQ+0NOXRtJlb5ru54j5F3fdVmqRaWXfUfu/mg7mDn03pCLwVSFqQ817+b/LkDeWkWyqQ3Tv+lXbipzc4t0mIACemPIlWE4NC1Zw03iuPXUa2WxC8d0Yohw7HEkGaH3hdziTDF9ool3qwp1NchTHBO4Zn9TIGaB3hFydpFKyhBqtu1G4pr1fznkIUoJ/3rMVRbWQ4D8jSDvbaSSzVWeByPbqRbxDl7mY1zMgkXfoPeDXJlQJWf1NuQhXunKKJxNyALIofeDnBYtRr1NNyD3cQotEyrKBD74hKH3i8kXLcYjkLP18L6MwF09iMmhN4R80WKUA5C7rS6fY3/VfoUA+RulEF2LMQQaHBuPO5BL2wrlzU57n5CgPwh6T8hjltshGtLj3NUhN/FKFq1ImWmHAPkbduuziGpT9rt3HNchNzmZFK2Y26EH4tB7Q+7M3IUpNnbpNdR9tHSj1v7M4pUsWlGwcej9IXerdfoXfWfHsqgAeRuVd+1niUcB4tAnQK5R5eTqJCLZiswsIsLlgrXFis74XKGPgLwwdY3wctnxxarMMG/ogyE/PWZJZgiQ408BAXIIAuQQBMghCJBDECCHIEAOQYAcAuQQBMghCJBDECCHIEAOQYAcggA5BAHy54lJ4bmkDZEiQP4liHfn8xnzL27opX8YQP5ItefznbOi0zT9F38Z1bWvoxyQP1ByPtenpuNpntd7m6b5L5YKYBFt5oD8LgPsu/79gl86n3ceqJ6beWvnfwI5C53PDMiPf/ednX6x+JUQPeV9FR+jTHIDcqb5t+EK3Vqcmkm94ltt1dIE5Pe27sy8cPrnLxpC7RM+2MXH2DTTLSeX385KSpfLjdt1uFxe8CldLsMacoQrdzTUOxERofbnbtw+A3I+n+VOyPfXlv5gyK8ryPtn/Mm/FHJtCL0IM8tvXPApTn46n+leyNfUf6uTA/J7PPgclvjkGMDY3F3YDPMisp/AX9rOzJaoT4n7WxPx5LMpnvqiit4th6vMedmyF3zzvcXwl+Z5bppG/wxRt4Gc7D5Op6TDPgNjy9RvXjVeL5fr6AEarlezaeTfJQ16hz4hvOkxnVHUkc6oX2XgskT43eR6dW9Q+UrVdTiJufDo9lO66JD7SgfID8e9y4ULybdDwwqHISErHlCT9GjdKeSjiqDwZ2d/PARANuzX3nPOIDfn0C3IYyp4aqIS5H6nd3QqDps3vCyy5coXQ/HFYWY2vSSdYDWEqCHomtdhpPa8vzhlLOuMXx7Kf0cMl1H598V+/2V9EUB+TwaDVpFwSyIm5bKCXIWboFVicljuC5OIdExORCTp68GcECN1U12ra+wpXa4/32rpcga5uYiG1VyEA+R6W4Ri1pDJnjNnAU1DIkJTLa2ojFmKULBQIdK7lKknXHVQIqKugUMh0sjmv6reHERojPfFSvrQqITU6M8wJciWGErIhwi5LkEigz+DiciUSb/78yLEr4S8XzTurOuSiAgFuDcgd6s6h+4IEdE4S5olVC2rYHPPtGZnutxNyLnPbkAWEQt1vMjsNykYtW1VZK7N/gQR4qrFFnOdsojSkGetE/YVBCDFopfNjiqWca3rZax8V7o7Kb6NWGL03wZq7eS+RKhTRHwhLj65Fy0e/HGQr/vNfL6cJfjwRriizF/bQLidXTHImxM4ug0b+zelUlbQhDxqt62g38l+CtF+5lzsLiGfXVtDdiD3KNcanuzD5oRw2fAcLlex70L52GLLyC3dzNHI7ba9n2pO7uocU1C0bngajzm/JGT5OMjbJeTRfSP/G05OwUt4E/JYRboNlI/xlUreTHvzQ+chfQ1yXqdZ5jJcmXcTRibyXfT90HZwXYVcH+Bg2FRJ/o1cQn+NJYaak3M4tQ45q+58fknI8vlOnoL0EMlsODmFUzch1yd2yirdBuHeKSdB38vlmcKH8uQ1J/ct0aneumXbJBwH3kkhDqNrbNYhd7+qqjQ9eYlnul98pVtOfroNuYka+5eMuP3EmJyXO6jE/YiTF60gOmeSxb1zNIzMQ/p9yAsnzxueLDaF2Mw1EliUy3QkzBeQK5tAHMcq5JdMQyXxPiwy3mPE/Vpz8gOQd64ZBMh/kF3pf+/k+oSu9+qSk9/3eTCztIcgrzo529TKvDMy0ZxhOR+3IddbV1o0K5eQj0MQ3enk1185eXfuhF/S8vzEPHm3/BZUpclXnbwGOdtO1HKJFnUv5Is8+VEnL/tBbXJkanb6Rn2eI4YaZUxuGokiwrwXk8dfdZu4yyLtco3k7sTkxyBHCvGgYXbLoX4xRmjXDU862vDsOOhUd/Kb1C/SL/c6eeBce3m6Zr98CoNZKCFUOvnV9xLVG56mGbn4VXUlXS8bUMdsCxeBzI+dHHnyo6Ksn1JyXiXlybvQRq06edl+XSffN5z8QI/n4oTSpQ/E5CnLUmQmeXlCBnkZXYwet9zJVXEbbLU3uch6DIszYomQwAxZFn2ROuTrNDzGrtwRr/Q+VadftOxw7DyDErhgx3E9Ju/dDeBTweKr5L49VZ38do+nLMpoWM228DEnJ59AzMMV2yaOMdB4tbiZcIUy4zX1Uw6owS/iJiEp4oAOoY66Sv6bpdtTrhcLMQ8udcj+aiq0d9lVaC5Sh9z3qGYhkcJQ2/soN92RYbSKG19utn0KWdnx5pqNneyKuSXMOK3Wp3DdgK34Wfd+BJfcBfnysQBxI7Q8sisnz4a3zHHbDutqJLtvUgxEbvDVtUivmHzKqPepAOh1MB3wmdcPvpDrR6JrrCPDL7s9WdnLxDNSCT/+yo5lGd1FqpCTf6tj/tcB5IejcqH2bBH/x94ZaLnK6lC4GYgrRbV9/6e9gICAWrX1/NPx7n3WOjNSdSR8TUOgEAJJUSPxcXpGeBco0evhCpNpsiFKjrfMJmg1Vdpbmpcjngu+ys9TSdOtZp68hpzD6T/PbFjfPolOR36qn6Mn++qfn6jiisa/OB6QDPcEuYwTrsK8Qw436bItrHXRm/cd2+yMcNz10S2Px4OboLIKOYfH6nP74ZtBBygXIUX5DA7xh9MezkqNezZzOE4v5Dfx96hvyVOWo0rqsqiNLO/sC14i9HjEcdL0fNkvRZ5jzCA+qPi7QiScp1aUcs/JZUXU9Eco1J2kPCPdVNI5mdsgqVL++RnRODydHw18WzVw8Vjw5O9hLrnRpdp3fHxVUsvP2yCdtHiPJci3t31m//nBRSKERdYgZ6mTeWE3da6qOq84rxojPjeX74O8MjxLINY1WzNoeZwMy9sGZt+VAuQHOa/zai9fXr7FG9fctuKVenWRozfdHi7hjSLeY66j9r29Y6tinm2zmZsC5H+jTyyt0Qp2mKvVphUB5BcQy2ZI8/9smRsgv0ZjMiBfhpx/zy6AHLq8ADkEyCEIkEMQIIcgQA5BgByCADkEAXIIkANyCJBDECCHIEAOQYAcggA5BP3fQq4MdrOHLg55qwE5dG3IeQ/kLPWCgkRofED+Z2R2QK60gfsH5H/w2cM6U3t4JUAOyP8g5BI53efJdQ25QeMD8i+XGvdMDk6ZWmPatOFmWNGbjd8Wzh4bY0+2Z5gQxbsCdzjlZWyZLUmbTil7C3JFLb57D8h/K1Kx1JoQrhjdtvZIx93GZ9uOm/HVaZdxHZUgl3COkejoldLavzfACCD/DbGDWsVlfFqHt4jjngL1JeQi0mqTb9haF7DRhvwtTIpmdOtP08jCAPLfiFScg00L0lqmjRIRkRicR08uE+RK61eQxyOa3idahQKs+gbI//sOp49UstXYWt36A+d2ecmT3+YpRC47nmZc6pwlunJHPY8uHvEKIP/PZfzSkVwQyrEvKkuefDO7Mp3YhvPSPQE5IP8VyKvlUVPKm1JHc9OTl5CnKCW9T9I9ATkg/wW5TidV1JesHvbkKm0OROE3A8gB+W/G5GS0zradPMeTCzw5IP8esU/sZUmP3JO/F5MX4coNnhyQfwPl41hQ7ckPZFdKyDm9Z9qUXQHkgPy3Mfe58pgAMSWQ8aeaIKdyS8567kq8Bet6PgwgB+S/Fpj7mCV6XQ8it9NIjt+d0wU1EXIJ9EoVoYQdmSncwsRxfXhyQP4lMUti2jLaTq6d9HisjKY8J9Mak/w5G18QPXh8OZsPA8gB+Tc48+h1FfnJVXGbYh/LaEOSQT6WTVkZ9r3XNMvQR/n+mhs8OSD/Jsw50S5CJNmOzETZjsypjIoNg/MClnhNfLX+BQLkv+rSeXF3Zb7J+q7E9S7D1cuAHJB/Y5D+4milkHdcAwFyCALkEATIIQiQQxAghyBADgFyQA4BcggC5BAEyCEIkEMQIIcgQA5BgBwC5DAFBMihtySkMFH9HbFSAsj/BOK6aRqBHd6B3FrupMXhAfk6oH3/qQ8W21DGHLrL43HVVf+pP7TUOxtzloMA5FbDqArG4X7v16/puh1NppqGZLWdns/H/G3x8/NzUXt29zsdsacINU0LyD/ysqrvFUXzOx2BnO/3HZC3jRZedeQ/P/8eclFOJF9gz5eQL9iTWXRjAPkHn52hIbz/IMtBP2sU6nv5EHLTlOuMykM2IL89Ftz7B1L3UM8XdbF8VvQd7yzvsKcaXnwwLtsTkH8i2wT3oe+ts77LuHKL8r8Vdn+1HMVuT/7Cdy9CLiInQ94NQ2cR7NbvW39k0cvA4gN7Hocc4conTT+QiAgNwbSsZp7nxnz7EHLVNEchZz67phSY69bj4U8h32VPPm5PxOTvi7v7ICLMLCJTOx1xofsgp+OQn/92Jl/Nefhwnif/Z/ZsGgLkq3ANnfv4jBFAN9y470LAOH64xoGG5F0qzzN0ndVQxpTuFiGtmBqFqrPK2CPLgdHz+bS9Svt/jLod5A9X9kjxuFfWsOJe/nk+eGdV7XPzzUUNXV+y5jyrv6+Kj9uPv1DXuWo59aE8FdBp9qQu+wu77clIIW73tkISyzomcfa8R0OmV8prpHBuvhtVhZ1eKm8Uehns5q7o8ZM0Qf4sCh7FUXHNY19V7XOrYaxqX1arD7/YnzF51OU3SMbppwI5zZ403qA/Zk9pGgbkLyNEa8UhWbhTU1zKS7nBypOT1ZBDbtEZlJBFSLJGcW0yrvYsbavCv8kTc/55S0QWVndjjpDbYxGypMe1dcdzsoDmSSJiz5B9VfVvzl6EulCdxFqsTA05E5G9ZHosIbIXKVdwnj2ZiKgI/bfsGSBHuLLaj+pERCQ6L9cYvls0jA1MS/Ff5cnH0yfI5e7DTkccT43i20RiHzMqpb3coH6xCqmHOiVtLOP+say/pnRKDjmFE2Q1z1NX1UGuQkeTso6nZalTi5C7mvr3Rfwb7C9W2fKnZ9kzh3zTnuGD8JSB/QtCbs3rAz2m4HpcI/gWDA2slvpVlSfnDIPgeHxrcNibwjcKdffUJmSMNuO/MSNAbtpKo153PP1jZVyzGw16ZNHKIyCys6quDzneM4CXopFeZBnyzY7nWfbkHPJNe4430adMYLkg5MmrWat2RSOEDEO/1PFfyAbkkHdV2OkaRfI2CWs/Tx6RvFOXHdmVnOvigH08c6SqiVepIb8PcgRy9Q/smUO+ac+xFq2eOQpAnpl+asfkmIJ32eN5KgxmYacrKNtEOP4LH/uqNc2uwaBVyMeO53Od81lVlyD3Ub3qVjqe2578NHtmkO+wp5NF3LSfT1W+IORT6w3Vx2kw/J4YssKAlhslb1yelMJQVeXAliHnVch9p9RxLjurmnjlEnIRCrHGcchPs2cG+Q57jh3PVk7YBuGSkN/L32rPsye7ssOTqyLdtdDxZJYqPXDUk/tNX3yekfdVdcmTj9mL2Et8B/KT7LnhydUsHevMd8YI8DXDlSktsOR5YvmRmDzl6PIY0qUZYhvQQnZlNppx1JOHUP+xliefVXXJk8utCqCPx+Tn2DOPyTftGSDHYNCieAoRu5QNoPgKh2ZTxzz5rB09RHmrzDqeoZX4I08+fh7YsudEoJm2sJtVddWTp9oc9uTn2bPseG7YM6QQkSdflkQvobK4tDC868ZHULIRD3oBed2Oo6fMRmEWIa/nrjwzWPd4ck5Zlmf24TD1ZmdVXffkMsXkEm2QpTpmAfI/sGcO+aY9A+QKkC+78n5sI4ppqjqG9C7o7jrtrLrYFDyal1cgd+PYvb95lw1ecN0qtTursis2upZb2ptx05M/fvykFc7DldYFRLRW1cXsin/ObioIV0y1G0bwp3dnNzpUOteexWDQLntiqu26K3ezN/zsH7otep6bKDfxouvu0yQjdnOhh9hG0nXjq1bhQztd0Wee0vfn1r8LUM8nl3GGVvDLM09eTW/hMKGrSK/4Dq6sVXXJk6c5IhyS3f6Krswd+bIhizXugy1QZ9lTTfYcDtgTX5pYd+Xeb/lx49tiDOmyFoM/pRso5yVNOZKJjXu6YvrqywTRa8pn3wwKKcHHsid/VnO4OE3gmpys6KYxq1VdGwzqhjjiGb7DM0h/n3JHajRGqoeEAnWWPbNZX8MBexpAvu7KRUjRNPki23c5T1qofIKGLaLsy5BThC35TVUKubOpHrzbk99E6PGg6hb58xVxvc9vP4jybwuxEMmrqpa77M67CvECLran9nUv9q/OCk61Jx+wJ8KVl7682m25bpTU+rxy0RzyatPmfJPzVcqpaUwxiMcsLDKHnJc7r7wwPas6rDajXoWc8xu4Q17fnnpmnY/tudQt37KnkEHHc4PzN07ZHHg4OjDBbTNbO+TwPW5nP9XiBbxR8J/bk/2QA+aT/4FPFGq1xgpab9lOa0MCyP9I3AQzvNuzOodxQP6vKY8TpqHDkJ+2cAEghy4vQA4BcggC5BAEyCEIkEMQIIcgQA5BgBwC5IAcAuQQBMghCJBDECCHIEAOQYAcggA5BMghCJBDECD/L8SEVoMuDnmrDb4aDF0bcqW1bhktB106XDFaG0LTQReGXEQZOHPoypD7pZVarY1C60GXhdyvLOxiFnRAoctCHmMWg/aDrgu5o7wF5NClIb+5eKVF+0HXhXzseSImh64LuR8QOmv1agiQf2ekYgiMQ5eFnMdIBYhD14XcdTgJe5RAV4Zc4Mahy0MOxKHLdzzBOHR5yCEIkEMQIIcAOQQBcggC5BAEyCEIkEMQIIcgQA5BgBwC5BAEyCEIkEMQIIcgQA5BgByCADkEAXIIkEMQIP9LUo0uC7D6MyD/yzwrxQuQNxXkNfWZmNoWOxMB8u+VNE0zX9i5PQC5abywOjQg/1ZZnBf4PQC5ZVwbo0E5IP9WsW4spfI+5PbqVqzsT+y/Bci/NVqhBSe8PyZvGiPCLKJfRO0QIP/VaEVzDjC7wEPT/9o72+XGUSWAioJmuqDmR97/Za9BAqGvJHcnjpXOOVs148iyasp71GkaRK+RXFOIIemV5D5GV8etUl6VFyHIlMtF1jvH1YsS6JH8NYSYJ7/mKxpiJTTJXWwHwsXng/TfCWkO7S7VC8S03ggVipBI/qpspfyRu7MxqxZLZ8klxuhVfYgXkq/qynIf1EqLqgsxSrtPklPNJO1I/rJspetZfayjSG2RPMfoys8ufCj5tEpeP5KX9KUc12VoikVI/opsJc0qSyuVqEyTSMvJYwx1/+ernHz4JTAtEpf7ROYbxo9ZuyihHMlfla0MqvYMe5FcusP/l+TtLT+Nd5AESulI/opspQrY85WefCyS9+qiXEguH0ueYvCVHBh6IvmrspVV9i75UidvZcHrOvlZTr6VfKnXUF9B8ldlKx1/Fsl9T6OvInn4jOR5IZGTI/kLspVOeDdduYzka9WlZS49w+npStQGPYyQ/PuzleBm0pyvdGXXgWd6X/I1oWmvTgaeKg00QvLvRVpVXHWp96W1th03f+vVZFB/Q1plZi+5kooj+UuzlWE6Py3Kaq2lrJNBaX77avlVOUPnM9x0JrnkGOsRF3iyAslfkK30/GHOV6SuLk8xttlJqWtQQgzpSnLN81KXGL1MZzn5pCnGGEKMLFNE8ldkK2Nu7ZuyJVNvkldD67LEC0NFc5hPWX4r7CN5PyNmUnIk/3bLh2qHqC5/Oa+qotqPbw+cXEXVu7V0cnxRzygXUSxC8m9Gt5JLE7K87ELOB6ZryZcz9HDV9fJCARHJbxbgPzwwPeMMQHIAJAdAcgAkByRHckByACQHQHIAJAdAcgAkB0ByQHIkByQHQHIAJAdA8n/F8wgDGJfc03gWrEueevuenNgKBSxK7kNqTx0HulWBSclT6BugpE9ILs7tD7C1BJLfG7cG8k9F8hzyVbYDSH4jseU0kH/K13+WnMCP5M9H09g4dgjkn4zk6Z8k18De+0j+ZMSH0eUxkFdffQopu3Y7LHeAS9VsySmlkFJOKbcTUggppaFrhOQUUuq195xkcuWQ77dYoIiD5E/NVFIIeU1XNoG8RPIiaLdQQ1gkD2E5YWGR3IUUUqi4aZC4nKHtmi7PR5rlvvwTmH9C8mdlKsU3P2xDuAnkU9Vb1aUwb+J8kFxVc0ja9zqUenIedjaU1C7RelKUsK6qKSRZrlGtJ5gj+VOoMXTcTdZtZZsdV3VhDruuSe6vJdet5O1t12J7u6Zv11rujM2vEEDyLxtwVuFkUyqR7RiydmDWJQ4fInnJuHcDT9kOPIvy03CJekDma/X7qd4rzDwh+deTtpnKGKl31ZVm8iGSf1hdWVXOPY33u3fWYE7KguRfLnne7Sq+C+Srr4uhJ5H8A8l7ljK19KS9LVunpViO5Ej+xRyGe7qPpT2D8PPI8/+P5Gvm3T4bLiRn8InkT0Dmced1IF99XST/T5FcPxPJ538KdUQk/2rJda4gXgbyNZL/55x8k65MV5G8DYGxCMmfYLkb5hsPgXz19bq68oHksr9PziJ5udUyPYOQ/Gma9/nGYyCfQsgtxvsx1kt6V/K8LeE0p/N5JJ/nXAnjSP401vnGYyCfwhx2NYWkg/XF8bBLSESH8Wx5vQRm1z+yXGIfyV04VDIByZ+Us5yUqVNIIeXy7rK+qiYWOaQhJy/Gl3PSkGCnlNMSuGvVJKcU0rJA5hDJc6aDJ5I/P5jX+caUDtE0BOfr4qq25rueGLLqIPl8LPVfA/WeWQe07cd2iX0kFzp4Ivk35Syn843zqpOhnbK0H4fYW09xxwNDv2X3XkdmQXEk/56cJYdjIJ/mVstjNtF+HBMM2fdT3jZY/rgjMyD5t8TydxaOyDs/TefBWKYPPwNI/t2hPLHSFYxLPlHgAPORXJAcrEdyACQHQHJAcgAkB0ByACQHQHIAJAdAckByJAckB0ByACT/ZzzrDcG45LpsqH+BeDZQhp8u+aFb2zSlYafNzDbh8NMl19PtVTySgx3Jz57KHzd20+x57Bh+tOSnT+WPkgs7RcAPlFzd+4F8u0Xnu3v90D0Zye8o+aZzlZxur5KOY9Gr3wN0T0by+0m+7QSbt40El87IXfLaWjl149e2yksrZronI/n9JK9WrrM/u0DuQm2NnLrkcy/lPNwS7VZZXtE9GclvJrn4XQsHvwnkbu233HagnZvPDifoNqGhezKS30tyt29GKyn4TWfa3iw5n0ouae00sXhN92Qkv5Hkc9OrTUFwG8g1rM2SF8llkmmUvL32Q02G7slIfhvJc90sf4y4u0C+tpbYVFfGYozrbQnHGiPdk5H8NpInt53X2QbyoY/speRLvqK7buR0T0bye+DDrqi9C+SDzZeSLz/43QwS3ZOR/CalFbcrau8Ceeuy/K7k84gzbTNwuicj+V0k111RexfIPyV5zVd0O16lezKS36eEONdBkjsP5J8ZeM6zQH6c/qF7MpLfazJoLGrvA/laBXebguBW8pKvDINMuicj+e2m9UXVz0XtQyCvw0ffxL2SXHJI6yfpnozkN1yg1fstp+OSE116Ka/dk1Mh1D/HIs2wwIvuyUh+x6W28wD0ZCZ+7qWcsrbHPiV0xqn9NVuhezKS3/WhiToAzWe9aGuvZBn7x+rcb1nPvaZ7MpLf9PE3UX++pGrpnCyr5J3xHP7nwu0lr0XCixhMaAYbkktmbSxYj+SMF8G85PRbBvOSAyA5AJIDIDkgOQCSAyA5AJIDIDkAkgMgOSA5kgOSfynsYQXWJfcx8a2Dbck1xMAqcTAtubgQA987mM7J1UUyFrAt+SQ+Rjo+gGnJJ00x8s2DaclFCeVgXPJJGHuCdcmnHOOm/Sw1RTAnucaYx7gemQYFa5JPo+Q5RrIXsCd5GErlSA5GJV+11kCxBYxLLurY8xBsS85e4mB04MnyFTAveea7B9OSO4aaYF3yFOMw1HQJ48Gc5DEmGcM6yQtYk9xv5vETk0FgTnLdBHJmPMGg5CmGsTCuIUYKimBK8hTjZm2tRFYhgi3Jc4x+M8PpYmSTCrAk+cHx/RMUAD8+kof9cix2GwJjksthNRZVcrAWyQ8rDmkuDtYkn5Acfp3kAEgOgOQASA5IjuSA5ABIDoDkAEgOgOQASA7wHZKL9+z4BsYljzEGnoAA05KnFGMkmIPlnFzVxcgzEGBZchEN7C8BpiWftp1SAIxKTroCxiUnJ4dfIDk1RLAtuVBCBOuS62Z/fQCbkpOugPl0hYl9MD7w9IEFLGBccs3FclpdgWHJQ4wpewafYHrgmZXtDcG45E5QHIxLzmQQGM/JqZPDL5CcygoYl5yltvALJOehCTAueUJyIF0B+MmSq0sMPMG05BJjjImpILAseQjJMaUPttMVlq2AeclZtgLWJQdAcgAkB0ByACQHQHJAcgAkB0ByACQHQHIAJAd4juTOs9sEGJc8xRh5tg1MS+5TwHKwLbmophj50sCy5KIuRh6LAMOSl7EnksMvkJwvDWxLnmPgSwMkB/jRkrPTISA5wA+XXBLpCtjPyWOmhgimJdcUYyRlAcuSiy+Wk7KAYcldjCGz4hYsS55iUFXliwPLkid2rgXzkvOlgfl0hS8NbEvO2hUwL7lnqS1Yl5z15GBecuXJICCSA/xkyUUzU/pgW/K6OIspfbAseQ4pM6UPxtMVlq2AeclZtgLGJQdAcgAkB0ByACQHQHIAJAckB0ByACQHQHIAJAdAcgAkB0ByQHIAJAdAcgAkB0ByACQHQHIAJAckB0ByACQHQHIAJAdAcgAkByRHckByACQHQHIAJAdAcgAkB0ByQHK+CkByACQHQHIAJAdAcgAkB0By+K2SeywH24776S+Sg23J/05vf7AcLDv+5216q6EczcGo4n/+PiR/838AzOLfiuRYDqYdr5K3jAXAGn/fmuQPzYnmYC+K/53t/h/pZeG7180YxgAAAABJRU5ErkJggg==;" vertex="1" parent="-WW_ng4q_ALl978gMjCg-1">
          <mxGeometry x="610" y="290" width="290.2" height="400" as="geometry" />
        </mxCell>
        <mxCell id="-WW_ng4q_ALl978gMjCg-5" value="" style="rounded=0;whiteSpace=wrap;html=1;shadow=0;fontSize=20;align=center;fillColor=none;strokeWidth=2;" vertex="1" parent="-WW_ng4q_ALl978gMjCg-1">
          <mxGeometry x="628" y="321" width="160" height="26" as="geometry" />
        </mxCell>
        <mxCell id="-WW_ng4q_ALl978gMjCg-6" value="" style="rounded=0;whiteSpace=wrap;html=1;shadow=0;fontSize=20;align=center;fillColor=none;strokeWidth=2;" vertex="1" parent="-WW_ng4q_ALl978gMjCg-1">
          <mxGeometry x="646" y="372" width="204" height="58" as="geometry" />
        </mxCell>
        <mxCell id="-WW_ng4q_ALl978gMjCg-7" value="" style="rounded=0;whiteSpace=wrap;html=1;shadow=0;fontSize=20;align=center;fillColor=none;strokeWidth=2;" vertex="1" parent="-WW_ng4q_ALl978gMjCg-1">
          <mxGeometry x="732" y="500" width="128" height="28" as="geometry" />
        </mxCell>
        <mxCell id="-WW_ng4q_ALl978gMjCg-11" style="edgeStyle=orthogonalEdgeStyle;rounded=0;orthogonalLoop=1;jettySize=auto;html=1;exitX=0;exitY=0.5;exitDx=0;exitDy=0;strokeWidth=1;fontSize=20;" edge="1" parent="-WW_ng4q_ALl978gMjCg-1" source="-WW_ng4q_ALl978gMjCg-8" target="-WW_ng4q_ALl978gMjCg-5">
          <mxGeometry relative="1" as="geometry" />
        </mxCell>
        <mxCell id="-WW_ng4q_ALl978gMjCg-8" value="Initialize value of state" style="rounded=0;whiteSpace=wrap;html=1;shadow=1;strokeWidth=1;fontSize=20;align=center;fillColor=#dae8fc;strokeColor=#6c8ebf;" vertex="1" parent="-WW_ng4q_ALl978gMjCg-1">
          <mxGeometry x="960" y="304" width="260" height="60" as="geometry" />
        </mxCell>
        <mxCell id="-WW_ng4q_ALl978gMjCg-10" style="edgeStyle=orthogonalEdgeStyle;rounded=0;orthogonalLoop=1;jettySize=auto;html=1;exitX=0;exitY=0.5;exitDx=0;exitDy=0;strokeWidth=1;fontSize=20;" edge="1" parent="-WW_ng4q_ALl978gMjCg-1" source="-WW_ng4q_ALl978gMjCg-9" target="-WW_ng4q_ALl978gMjCg-6">
          <mxGeometry relative="1" as="geometry" />
        </mxCell>
        <mxCell id="-WW_ng4q_ALl978gMjCg-9" value="Value &lt;i&gt;only&lt;/i&gt; changed through &#39;setState&#39; function" style="rounded=0;whiteSpace=wrap;html=1;shadow=1;strokeWidth=1;fontSize=20;align=center;fillColor=#dae8fc;strokeColor=#6c8ebf;" vertex="1" parent="-WW_ng4q_ALl978gMjCg-1">
          <mxGeometry x="960" y="371" width="260" height="60" as="geometry" />
        </mxCell>
        <mxCell id="-WW_ng4q_ALl978gMjCg-13" style="edgeStyle=orthogonalEdgeStyle;rounded=0;orthogonalLoop=1;jettySize=auto;html=1;exitX=0;exitY=0.5;exitDx=0;exitDy=0;entryX=1;entryY=0.5;entryDx=0;entryDy=0;strokeWidth=1;fontSize=20;" edge="1" parent="-WW_ng4q_ALl978gMjCg-1" source="-WW_ng4q_ALl978gMjCg-12" target="-WW_ng4q_ALl978gMjCg-7">
          <mxGeometry relative="1" as="geometry" />
        </mxCell>
        <mxCell id="-WW_ng4q_ALl978gMjCg-12" value="Reference value through &#39;this.state&#39;" style="rounded=0;whiteSpace=wrap;html=1;shadow=1;strokeWidth=1;fontSize=20;align=center;fillColor=#dae8fc;strokeColor=#6c8ebf;" vertex="1" parent="-WW_ng4q_ALl978gMjCg-1">
          <mxGeometry x="960" y="484" width="260" height="60" as="geometry" />
        </mxCell>
      </root>
    </mxGraphModel>
  </diagram>
  <diagram id="GEvmF427H7pBcRBxRWRG" name="05 - hooks">
    <mxGraphModel dx="699" dy="344" grid="1" gridSize="10" guides="1" tooltips="1" connect="1" arrows="1" fold="1" page="1" pageScale="1" pageWidth="1920" pageHeight="1200" math="0" shadow="0">
      <root>
        <mxCell id="Xocx7TQtpYDV8lTPMGsu-0" />
        <mxCell id="Xocx7TQtpYDV8lTPMGsu-1" parent="Xocx7TQtpYDV8lTPMGsu-0" />
        <mxCell id="Xocx7TQtpYDV8lTPMGsu-7" style="edgeStyle=orthogonalEdgeStyle;rounded=0;orthogonalLoop=1;jettySize=auto;html=1;exitX=1;exitY=0.5;exitDx=0;exitDy=0;strokeWidth=1;fontSize=17;" edge="1" parent="Xocx7TQtpYDV8lTPMGsu-1" source="Xocx7TQtpYDV8lTPMGsu-2" target="Xocx7TQtpYDV8lTPMGsu-6">
          <mxGeometry relative="1" as="geometry" />
        </mxCell>
        <mxCell id="Xocx7TQtpYDV8lTPMGsu-2" value="useState" style="rounded=0;whiteSpace=wrap;html=1;shadow=1;fontSize=27;align=center;fillColor=#dae8fc;strokeColor=#6c8ebf;" vertex="1" parent="Xocx7TQtpYDV8lTPMGsu-1">
          <mxGeometry x="530" y="330" width="160" height="50" as="geometry" />
        </mxCell>
        <mxCell id="Xocx7TQtpYDV8lTPMGsu-3" value="Hooks System" style="text;html=1;strokeColor=none;fillColor=none;align=center;verticalAlign=middle;whiteSpace=wrap;rounded=0;shadow=1;fontSize=27;fontStyle=1" vertex="1" parent="Xocx7TQtpYDV8lTPMGsu-1">
          <mxGeometry x="740" y="300" width="200" height="20" as="geometry" />
        </mxCell>
        <mxCell id="Xocx7TQtpYDV8lTPMGsu-4" value="useEffect" style="rounded=0;whiteSpace=wrap;html=1;shadow=1;fontSize=27;align=center;fillColor=#dae8fc;strokeColor=#6c8ebf;" vertex="1" parent="Xocx7TQtpYDV8lTPMGsu-1">
          <mxGeometry x="530" y="400" width="160" height="50" as="geometry" />
        </mxCell>
        <mxCell id="Xocx7TQtpYDV8lTPMGsu-5" value="useRef" style="rounded=0;whiteSpace=wrap;html=1;shadow=1;fontSize=27;align=center;fillColor=#dae8fc;strokeColor=#6c8ebf;" vertex="1" parent="Xocx7TQtpYDV8lTPMGsu-1">
          <mxGeometry x="530" y="470" width="160" height="50" as="geometry" />
        </mxCell>
        <mxCell id="Xocx7TQtpYDV8lTPMGsu-6" value="Function that lets you use &lt;b&gt;state&lt;/b&gt; in a functional component" style="rounded=0;whiteSpace=wrap;html=1;shadow=0;fontSize=17;align=center;" vertex="1" parent="Xocx7TQtpYDV8lTPMGsu-1">
          <mxGeometry x="710" y="330" width="400" height="50" as="geometry" />
        </mxCell>
        <mxCell id="Xocx7TQtpYDV8lTPMGsu-8" style="edgeStyle=orthogonalEdgeStyle;rounded=0;orthogonalLoop=1;jettySize=auto;html=1;exitX=1;exitY=0.5;exitDx=0;exitDy=0;strokeWidth=1;fontSize=17;" edge="1" parent="Xocx7TQtpYDV8lTPMGsu-1" target="Xocx7TQtpYDV8lTPMGsu-9">
          <mxGeometry relative="1" as="geometry">
            <mxPoint x="690" y="425" as="sourcePoint" />
          </mxGeometry>
        </mxCell>
        <mxCell id="Xocx7TQtpYDV8lTPMGsu-9" value="Function that lets you use &lt;i&gt;something like&lt;/i&gt;&amp;nbsp;&lt;b&gt;lifecycle methods&lt;/b&gt; in a functional component" style="rounded=0;whiteSpace=wrap;html=1;shadow=0;fontSize=17;align=center;" vertex="1" parent="Xocx7TQtpYDV8lTPMGsu-1">
          <mxGeometry x="710" y="400" width="400" height="50" as="geometry" />
        </mxCell>
        <mxCell id="Xocx7TQtpYDV8lTPMGsu-10" style="edgeStyle=orthogonalEdgeStyle;rounded=0;orthogonalLoop=1;jettySize=auto;html=1;exitX=1;exitY=0.5;exitDx=0;exitDy=0;strokeWidth=1;fontSize=17;" edge="1" parent="Xocx7TQtpYDV8lTPMGsu-1" target="Xocx7TQtpYDV8lTPMGsu-11">
          <mxGeometry relative="1" as="geometry">
            <mxPoint x="690" y="495" as="sourcePoint" />
          </mxGeometry>
        </mxCell>
        <mxCell id="Xocx7TQtpYDV8lTPMGsu-11" value="Function that lets you create a &lt;b&gt;&#39;ref&#39;&lt;/b&gt; in a function component" style="rounded=0;whiteSpace=wrap;html=1;shadow=0;fontSize=17;align=center;" vertex="1" parent="Xocx7TQtpYDV8lTPMGsu-1">
          <mxGeometry x="710" y="470" width="400" height="50" as="geometry" />
        </mxCell>
        <mxCell id="wb88FcBy2I6P0oBgFkj_-0" value="Hooks are a way to write reusable code, instead of more classic techniques like Inheritance" style="rounded=0;whiteSpace=wrap;html=1;shadow=0;fontSize=17;align=center;fillColor=#f5f5f5;strokeColor=#666666;fontColor=#333333;" vertex="1" parent="Xocx7TQtpYDV8lTPMGsu-1">
          <mxGeometry x="530" y="560" width="580" height="50" as="geometry" />
        </mxCell>
      </root>
    </mxGraphModel>
  </diagram>
  <diagram id="rRpXkT4ij-CPy3FtUWSA" name="11 - usestate">
    <mxGraphModel dx="858" dy="422" grid="1" gridSize="10" guides="1" tooltips="1" connect="1" arrows="1" fold="1" page="1" pageScale="1" pageWidth="1920" pageHeight="1200" math="0" shadow="0">
      <root>
        <mxCell id="iXcYF8tZR6j6iPS7CPfR-0" />
        <mxCell id="iXcYF8tZR6j6iPS7CPfR-1" parent="iXcYF8tZR6j6iPS7CPfR-0" />
        <mxCell id="iXcYF8tZR6j6iPS7CPfR-2" value="const [" style="rounded=0;whiteSpace=wrap;html=1;shadow=1;fontSize=20;align=center;fillColor=#dae8fc;strokeColor=#6c8ebf;" vertex="1" parent="iXcYF8tZR6j6iPS7CPfR-1">
          <mxGeometry x="410" y="240" width="100" height="70" as="geometry" />
        </mxCell>
        <mxCell id="iXcYF8tZR6j6iPS7CPfR-3" value="&lt;b&gt;activeIndex&lt;/b&gt;" style="rounded=0;whiteSpace=wrap;html=1;shadow=1;fontSize=20;align=center;fillColor=#dae8fc;strokeColor=#6c8ebf;" vertex="1" parent="iXcYF8tZR6j6iPS7CPfR-1">
          <mxGeometry x="510" y="240" width="150" height="70" as="geometry" />
        </mxCell>
        <mxCell id="iXcYF8tZR6j6iPS7CPfR-4" value="setActiveIndex" style="rounded=0;whiteSpace=wrap;html=1;shadow=1;fontSize=20;align=center;fillColor=#dae8fc;strokeColor=#6c8ebf;fontStyle=1" vertex="1" parent="iXcYF8tZR6j6iPS7CPfR-1">
          <mxGeometry x="660" y="240" width="150" height="70" as="geometry" />
        </mxCell>
        <mxCell id="iXcYF8tZR6j6iPS7CPfR-5" value="] = useState(" style="rounded=0;whiteSpace=wrap;html=1;shadow=1;fontSize=20;align=center;fillColor=#dae8fc;strokeColor=#6c8ebf;" vertex="1" parent="iXcYF8tZR6j6iPS7CPfR-1">
          <mxGeometry x="810" y="240" width="150" height="70" as="geometry" />
        </mxCell>
        <mxCell id="iXcYF8tZR6j6iPS7CPfR-6" value="&lt;b&gt;null&lt;/b&gt;" style="rounded=0;whiteSpace=wrap;html=1;shadow=1;fontSize=20;align=center;fillColor=#dae8fc;strokeColor=#6c8ebf;" vertex="1" parent="iXcYF8tZR6j6iPS7CPfR-1">
          <mxGeometry x="960" y="240" width="100" height="70" as="geometry" />
        </mxCell>
        <mxCell id="iXcYF8tZR6j6iPS7CPfR-7" value=")" style="rounded=0;whiteSpace=wrap;html=1;shadow=1;fontSize=20;align=center;fillColor=#dae8fc;strokeColor=#6c8ebf;" vertex="1" parent="iXcYF8tZR6j6iPS7CPfR-1">
          <mxGeometry x="1060" y="240" width="80" height="70" as="geometry" />
        </mxCell>
        <mxCell id="VsB5Q1vmUfu1mBZIwuN6-0" value="" style="shape=curlyBracket;whiteSpace=wrap;html=1;rounded=1;shadow=0;strokeWidth=1;fillColor=none;fontSize=20;align=center;rotation=-90;" vertex="1" parent="iXcYF8tZR6j6iPS7CPfR-1">
          <mxGeometry x="575" y="255" width="20" height="150" as="geometry" />
        </mxCell>
        <mxCell id="VsB5Q1vmUfu1mBZIwuN6-1" value="" style="shape=curlyBracket;whiteSpace=wrap;html=1;rounded=1;shadow=0;strokeWidth=1;fillColor=none;fontSize=20;align=center;rotation=90;" vertex="1" parent="iXcYF8tZR6j6iPS7CPfR-1">
          <mxGeometry x="725" y="150" width="20" height="150" as="geometry" />
        </mxCell>
        <mxCell id="VsB5Q1vmUfu1mBZIwuN6-3" value="" style="shape=curlyBracket;whiteSpace=wrap;html=1;rounded=1;shadow=0;strokeWidth=1;fillColor=none;fontSize=20;align=center;rotation=-90;" vertex="1" parent="iXcYF8tZR6j6iPS7CPfR-1">
          <mxGeometry x="1000" y="287.5" width="20" height="85" as="geometry" />
        </mxCell>
        <mxCell id="VsB5Q1vmUfu1mBZIwuN6-4" value="Piece of state" style="text;html=1;strokeColor=none;fillColor=none;align=center;verticalAlign=middle;whiteSpace=wrap;rounded=0;shadow=0;fontSize=20;" vertex="1" parent="iXcYF8tZR6j6iPS7CPfR-1">
          <mxGeometry x="537.5" y="340" width="95" height="50" as="geometry" />
        </mxCell>
        <mxCell id="VsB5Q1vmUfu1mBZIwuN6-5" value="Function to &lt;i&gt;change&lt;/i&gt;&amp;nbsp;this piece of state" style="text;html=1;strokeColor=none;fillColor=none;align=center;verticalAlign=middle;whiteSpace=wrap;rounded=0;shadow=0;fontSize=20;" vertex="1" parent="iXcYF8tZR6j6iPS7CPfR-1">
          <mxGeometry x="660" y="150" width="152.5" height="50" as="geometry" />
        </mxCell>
        <mxCell id="VsB5Q1vmUfu1mBZIwuN6-6" value="Initial value for this piece of state" style="text;html=1;strokeColor=none;fillColor=none;align=center;verticalAlign=middle;whiteSpace=wrap;rounded=0;shadow=0;fontSize=20;" vertex="1" parent="iXcYF8tZR6j6iPS7CPfR-1">
          <mxGeometry x="930" y="350" width="156.25" height="50" as="geometry" />
        </mxCell>
      </root>
    </mxGraphModel>
  </diagram>
</mxfile>
